<svg preserveAspectRatio="none" width="100%" height="100%" overflow="visible" style="display: block;" viewBox="0 0 13.1992 13.2002" fill="none" xmlns="http://www.w3.org/2000/svg">
<path id="Union" d="M6.59961 0C8.35004 0 10.0289 0.694877 11.2666 1.93262C12.5043 3.17036 13.1992 4.84918 13.1992 6.59961V11.2666C13.1992 11.7792 12.9962 12.2713 12.6338 12.6338C12.2713 12.9963 11.7792 13.2001 11.2666 13.2002H10.5996C10.0869 13.2002 9.59499 12.9964 9.23242 12.6338C8.86995 12.2712 8.66602 11.7793 8.66602 11.2666V9.2666C8.6661 8.75397 8.86993 8.26191 9.23242 7.89941C9.59498 7.53695 10.0869 7.33398 10.5996 7.33398H12V6.59961C12 5.16744 11.4307 3.79395 10.418 2.78125C9.40527 1.76855 8.03178 1.19922 6.59961 1.19922C5.16744 1.19922 3.79395 1.76855 2.78125 2.78125C1.76855 3.79395 1.19922 5.16744 1.19922 6.59961V7.33398H2.59961C3.11228 7.33398 3.60424 7.53695 3.9668 7.89941C4.32929 8.26191 4.53312 8.75397 4.5332 9.2666V11.2666C4.5332 11.7793 4.32927 12.2712 3.9668 12.6338C3.60423 12.9964 3.11236 13.2002 2.59961 13.2002H1.93262C1.41998 13.2001 0.927923 12.9963 0.56543 12.6338C0.203063 12.2712 0 11.7792 0 11.2666V6.59961C7.10759e-08 4.84918 0.694877 3.17036 1.93262 1.93262C3.17036 0.694877 4.84918 4.73586e-08 6.59961 0ZM1.19922 11.2666C1.19922 11.4609 1.27674 11.6477 1.41406 11.7852C1.55151 11.9226 1.73824 11.9999 1.93262 12H2.59961C2.7941 12 2.98064 11.9227 3.11816 11.7852C3.25559 11.6476 3.33301 11.461 3.33301 11.2666V9.2666C3.33292 9.07223 3.25561 8.8855 3.11816 8.74805C2.98065 8.61062 2.79402 8.5332 2.59961 8.5332H1.19922V11.2666ZM10.5996 8.5332C10.4052 8.5332 10.2186 8.61062 10.0811 8.74805C9.9436 8.8855 9.8663 9.07223 9.86621 9.2666V11.2666C9.86621 11.461 9.94363 11.6476 10.0811 11.7852C10.2186 11.9227 10.4051 12 10.5996 12H11.2666C11.461 11.9999 11.6477 11.9226 11.7852 11.7852C11.9225 11.6477 12 11.4609 12 11.2666V8.5332H10.5996Z" fill="#181715"/>
</svg>
