<svg preserveAspectRatio="none" width="100%" height="100%" overflow="visible" style="display: block;" viewBox="0 0 15.1299 13.2686" fill="none" xmlns="http://www.w3.org/2000/svg">
<path id="Union" d="M7.56544 0C7.8974 8.15036e-05 8.22438 0.0852597 8.51368 0.248047C8.76693 0.390646 8.98458 0.588765 9.1504 0.826172L9.21778 0.930664L9.21973 0.933594L14.8662 10.3594L14.8711 10.3682C15.0398 10.6603 15.1288 10.9918 15.1299 11.3291C15.1308 11.6665 15.044 11.9988 14.877 12.292C14.7098 12.5852 14.4686 12.8298 14.1777 13.001C13.8868 13.1721 13.5553 13.2648 13.2178 13.2686H1.91212C1.57468 13.2648 1.243 13.1721 0.952156 13.001C0.661526 12.8298 0.419971 12.585 0.252937 12.292C0.086045 11.9989 -0.000936809 11.6664 7.60925e-06 11.3291C0.00106757 10.9918 0.0901076 10.6603 0.258797 10.3682L0.263679 10.3594L5.91016 0.933594L6.39552 1.22363L5.91212 0.930664C6.0844 0.646679 6.32681 0.411041 6.61622 0.248047C6.90566 0.0850902 7.23328 6.02998e-05 7.56544 0ZM7.56544 1.19922C7.43952 1.19928 7.31481 1.23217 7.20509 1.29395C7.09538 1.35576 7.00283 1.44508 6.93751 1.55273L1.29786 10.9678C1.23388 11.0786 1.19964 11.2051 1.19923 11.333C1.19891 11.4608 1.23268 11.5872 1.29591 11.6982C1.35923 11.8093 1.45142 11.9019 1.56153 11.9668C1.67169 12.0315 1.79705 12.0669 1.92481 12.0684H13.2051C13.3331 12.0669 13.459 12.0317 13.5693 11.9668C13.6795 11.9019 13.7707 11.8093 13.834 11.6982C13.8973 11.5871 13.931 11.4609 13.9307 11.333C13.9303 11.2051 13.896 11.0786 13.832 10.9678H13.8311L8.19239 1.55273L8.1377 1.47559C8.07918 1.40239 8.00698 1.34022 7.92481 1.29395C7.81522 1.23234 7.69115 1.1993 7.56544 1.19922ZM7.57227 9.40234C7.90346 9.40244 8.17171 9.67079 8.17188 10.002C8.17188 10.3333 7.90357 10.6015 7.57227 10.6016H7.56544C7.23408 10.6015 6.96583 10.3333 6.96583 10.002C6.966 9.67074 7.23419 9.40236 7.56544 9.40234H7.57227ZM7.56544 4.06934C7.89681 4.06934 8.16505 4.33757 8.16505 4.66895V7.33594C8.16487 7.66716 7.8967 7.93555 7.56544 7.93555C7.23419 7.93553 6.966 7.66715 6.96583 7.33594V4.66895C6.96583 4.33758 7.23408 4.06935 7.56544 4.06934Z" fill="#181715"/>
</svg>
