<svg preserveAspectRatio="none" width="100%" height="100%" overflow="visible" style="display: block;" viewBox="0 0 13.1895 11.5596" fill="none" xmlns="http://www.w3.org/2000/svg">
<path id="Union" d="M6.59473 0C6.88113 1.96143e-05 7.16255 0.0743402 7.41212 0.214844C7.59935 0.320262 7.76426 0.460055 7.89747 0.626953L8.01954 0.802734L8.02149 0.804688L12.9619 9.05273L12.9658 9.05957C13.1113 9.31154 13.1886 9.59771 13.1895 9.88867C13.1903 10.1796 13.1148 10.466 12.9707 10.7188C12.8266 10.9715 12.6189 11.1825 12.3682 11.3301C12.1174 11.4776 11.832 11.5564 11.541 11.5596H1.64844C1.35745 11.5564 1.07211 11.4777 0.821296 11.3301C0.570512 11.1825 0.362863 10.9715 0.218757 10.7188C0.0746791 10.4659 -0.000807887 10.1797 6.52064e-06 9.88867C0.000849752 9.59771 0.0781401 9.31154 0.223639 9.05957L0.227546 9.05273L5.16798 0.804688L5.59766 1.06152L5.16993 0.802734C5.31848 0.557889 5.5278 0.355345 5.77735 0.214844C6.02692 0.0743725 6.30835 0 6.59473 0ZM6.59473 1C6.4802 1 6.3674 1.02977 6.26758 1.08594C6.16784 1.14212 6.08382 1.22343 6.02442 1.32129L1.08887 9.55957C1.03069 9.66033 1.00036 9.77525 1.00001 9.8916C0.999704 10.0079 1.03031 10.1226 1.0879 10.2236C1.14546 10.3245 1.22809 10.4088 1.32813 10.4678C1.42841 10.5268 1.54284 10.5583 1.65919 10.5596H11.5303C11.6465 10.5582 11.7602 10.5267 11.8604 10.4678C11.9605 10.4088 12.044 10.3246 12.1016 10.2236C12.1591 10.1226 12.1898 10.0079 12.1895 9.8916C12.1891 9.77525 12.1578 9.66033 12.0996 9.55957V9.55859L7.16505 1.32129L7.11524 1.25098C7.06202 1.18435 6.99663 1.12805 6.92188 1.08594C6.82208 1.02975 6.70926 1.00002 6.59473 1ZM6.60059 8.22754C6.87672 8.22755 7.10059 8.45141 7.10059 8.72754C7.10042 9.00352 6.87661 9.22753 6.60059 9.22754H6.59473C6.31871 9.22753 6.09491 9.00353 6.09473 8.72754C6.09473 8.4514 6.3186 8.22755 6.59473 8.22754H6.60059ZM6.59473 3.56055C6.87088 3.56055 7.09473 3.7844 7.09473 4.06055V6.39355C7.09473 6.6697 6.87088 6.89355 6.59473 6.89355C6.3186 6.89355 6.09473 6.66969 6.09473 6.39355V4.06055C6.09473 3.78441 6.3186 3.56056 6.59473 3.56055Z" fill="#181715"/>
</svg>
