<svg preserveAspectRatio="none" width="100%" height="100%" overflow="visible" style="display: block;" viewBox="0 0 18.9131 16.5859" fill="none" xmlns="http://www.w3.org/2000/svg">
<path id="Union" d="M9.45704 0C9.87226 5.9937e-05 10.2808 0.106838 10.6426 0.310547C11.0043 0.514241 11.3071 0.808167 11.5225 1.16309L11.5254 1.16699L18.583 12.9502L18.5899 12.9609C18.8006 13.3262 18.9119 13.7404 18.9131 14.1621C18.9142 14.584 18.8056 14.9997 18.5967 15.3662C18.3878 15.7325 18.0861 16.038 17.7227 16.252C17.3591 16.4658 16.9452 16.5813 16.5234 16.5859H2.38966C1.96803 16.5812 1.55485 16.4657 1.19141 16.252C0.827923 16.0381 0.526342 15.7326 0.317391 15.3662C0.108481 14.9997 -0.00111562 14.584 8.5621e-06 14.1621C0.00122022 13.7404 0.113408 13.3262 0.324227 12.9609L0.330087 12.9502L7.38868 1.16699L7.99415 1.53027L7.39063 1.16309C7.60598 0.808171 7.90978 0.51426 8.27149 0.310547C8.63326 0.106967 9.04192 3.29445e-05 9.45704 0ZM9.45704 1.5C9.29956 1.50003 9.14407 1.5409 9.00684 1.61816C8.86978 1.69544 8.75447 1.80687 8.67286 1.94141L1.62208 13.71C1.54224 13.8484 1.50054 14.0062 1.50001 14.166C1.49962 14.326 1.54093 14.4841 1.62013 14.623C1.69939 14.762 1.81426 14.8778 1.95216 14.959C2.08991 15.04 2.24648 15.0841 2.40626 15.0859H16.5068C16.6668 15.0842 16.8241 15.04 16.9619 14.959C17.0996 14.8779 17.2138 14.7618 17.293 14.623C17.3722 14.4841 17.4135 14.326 17.4131 14.166C17.4126 14.0062 17.3699 13.8494 17.29 13.7109V13.71L10.2402 1.94141L10.1729 1.84473C10.0996 1.75302 10.0092 1.6761 9.90626 1.61816C9.76908 1.54093 9.61446 1.50006 9.45704 1.5ZM9.46583 11.7529C9.87983 11.7532 10.2158 12.0889 10.2158 12.5029C10.2157 12.9168 9.87972 13.2527 9.46583 13.2529H9.45704C9.04295 13.2529 8.70722 12.917 8.70704 12.5029C8.70704 12.0887 9.04284 11.7529 9.45704 11.7529H9.46583ZM9.45704 5.08594C9.87125 5.08594 10.207 5.42172 10.207 5.83594V9.16895C10.207 9.58316 9.87125 9.91895 9.45704 9.91895C9.04284 9.91893 8.70704 9.58315 8.70704 9.16895V5.83594C8.70704 5.42173 9.04284 5.08595 9.45704 5.08594Z" fill="#181715"/>
</svg>
