<svg preserveAspectRatio="none" width="100%" height="100%" overflow="visible" style="display: block;" viewBox="0 0 10.5329 10.5332" fill="none" xmlns="http://www.w3.org/2000/svg">
<path id="Union" d="M5.29092 0.00195312C5.32136 0.0032156 5.35174 0.00584677 5.38174 0.0117188C5.39508 0.0143198 5.4078 0.0189926 5.4208 0.0224609C5.48245 0.038914 5.5427 0.0631996 5.59756 0.0996094C5.63103 0.121815 5.66204 0.147485 5.69033 0.175781L10.3573 4.8418C10.5915 5.076 10.5913 5.45609 10.3573 5.69043C10.123 5.92474 9.74301 5.92474 9.50869 5.69043L5.86611 2.04785V9.93262C5.86611 10.2639 5.59773 10.533 5.2665 10.5332C4.93513 10.5332 4.6669 10.264 4.6669 9.93262V2.0459L1.02334 5.69043C0.789067 5.92453 0.409958 5.92453 0.175684 5.69043C-0.0585271 5.45611 -0.0585958 5.07608 0.175684 4.8418L4.8417 0.175781C4.86978 0.147674 4.9003 0.121716 4.9335 0.0996094C4.98945 0.0623864 5.05119 0.0379283 5.11416 0.0214844C5.12558 0.0184959 5.13667 0.0140409 5.14834 0.0117188C5.18698 0.00403747 5.22627 2.6767e-05 5.26553 0H5.2665C5.2747 4.27406e-06 5.28281 0.00162396 5.29092 0.00195312Z" fill="#181715"/>
</svg>
