<svg preserveAspectRatio="none" width="100%" height="100%" overflow="visible" style="display: block;" viewBox="0 0 15.5 15.4998" fill="none" xmlns="http://www.w3.org/2000/svg">
<path id="Union" d="M7.21973 0.21967C7.51262 -0.0732234 7.98738 -0.0732231 8.28027 0.21967C8.57298 0.512578 8.57311 0.987384 8.28027 1.28022L2.56055 6.99994H14.75C15.1641 7.00003 15.5 7.33578 15.5 7.74994C15.4999 8.16401 15.1641 8.49986 14.75 8.49994H2.56055L8.28027 14.2197C8.57298 14.5126 8.57311 14.9874 8.28027 15.2802C7.98744 15.573 7.51263 15.5729 7.21973 15.2802L0.219727 8.28022C0.166613 8.2271 0.125647 8.16636 0.0917969 8.10346C0.0798013 8.08119 0.0663785 8.05962 0.0566406 8.03608C0.0499793 8.01993 0.0465017 8.00275 0.0410156 7.98627C0.0161447 7.91171 2.19825e-05 7.83286 0 7.74994C0 7.66894 0.0153024 7.59158 0.0390625 7.5185C0.0445186 7.50168 0.0480129 7.48419 0.0546875 7.46772L0.0585938 7.45795C0.0676496 7.43652 0.0798846 7.41678 0.0908203 7.39643C0.124722 7.33326 0.166418 7.27298 0.219727 7.21967L7.21973 0.21967Z" fill="#181715"/>
</svg>
