<svg preserveAspectRatio="none" width="100%" height="100%" overflow="visible" style="display: block;" viewBox="0 0 15.1992 15.1991" fill="none" xmlns="http://www.w3.org/2000/svg">
<path id="Union" d="M7.17578 0.175736C7.4101 -0.0585787 7.78912 -0.0585784 8.02344 0.175736C8.25762 0.410061 8.25771 0.789123 8.02344 1.02339L2.04688 6.99995H14.5996C14.9309 7.00002 15.1992 7.26823 15.1992 7.59956C15.1991 7.93082 14.9309 8.19911 14.5996 8.19917H2.04688L8.02344 14.1757C8.25762 14.4101 8.25771 14.7891 8.02344 15.0234C7.78917 15.2576 7.4101 15.2576 7.17578 15.0234L0.175781 8.02339C0.132663 7.98027 0.0995149 7.93095 0.0722656 7.87984C0.0275728 7.79592 2.45867e-05 7.70135 0 7.59956C0 7.49265 0.030143 7.39348 0.0791016 7.3066C0.0859379 7.29448 0.0908863 7.28121 0.0986328 7.26949L0.102539 7.26363C0.124004 7.23191 0.148794 7.20272 0.175781 7.17574L7.17578 0.175736Z" fill="#181715"/>
</svg>
