<svg preserveAspectRatio="none" width="100%" height="100%" overflow="visible" style="display: block;" viewBox="0 0 15.4999 15.5" fill="none" xmlns="http://www.w3.org/2000/svg">
<path id="Union" d="M7.77533 0.000976562C7.78218 0.0012119 7.789 0.00153145 7.79584 0.00195312C7.8345 0.00429149 7.87227 0.00960261 7.90912 0.0175781C7.9424 0.0247976 7.97455 0.0360679 8.00678 0.0478516C8.01926 0.0524201 8.0327 0.0543672 8.04487 0.0595703C8.06395 0.0677246 8.08106 0.0800353 8.09955 0.0898438C8.12335 0.102477 8.14767 0.113871 8.16987 0.128906C8.20869 0.15523 8.24582 0.185334 8.28022 0.219727L15.2802 7.21973C15.5731 7.51261 15.5731 7.98739 15.2802 8.28027C14.9873 8.57316 14.5126 8.57314 14.2197 8.28027L8.49994 2.56055V14.75C8.49994 15.1642 8.16413 15.5 7.74994 15.5C7.33573 15.5 6.99994 15.1642 6.99994 14.75V2.56055L1.28022 8.28027C0.987333 8.57316 0.512565 8.57314 0.21967 8.28027C-0.0732231 7.98738 -0.0732234 7.51262 0.21967 7.21973L7.21967 0.219727L7.27631 0.167969C7.28651 0.159651 7.29802 0.153208 7.30854 0.145508C7.32408 0.134144 7.33998 0.123446 7.35639 0.113281C7.38029 0.0984896 7.40456 0.0850951 7.42963 0.0732422C7.44781 0.0646257 7.46635 0.0569669 7.48529 0.0498047C7.51287 0.0394174 7.54088 0.0314367 7.56928 0.0244141C7.58934 0.019437 7.60916 0.0130911 7.62983 0.00976562C7.64088 0.00798896 7.65192 0.0061635 7.66303 0.00488281C7.69152 0.00159734 7.72057 0 7.74994 0C7.75845 6.34856e-07 7.7669 0.000695121 7.77533 0.000976562Z" fill="#181715"/>
</svg>
