<svg preserveAspectRatio="none" width="100%" height="100%" overflow="visible" style="display: block;" viewBox="0 0 9.16649 9.16775" fill="none" xmlns="http://www.w3.org/2000/svg">
<path id="Union" d="M4.48426 0.00954373C4.54857 -0.00325051 4.61522 -0.00311178 4.67957 0.00954373C4.69535 0.012637 4.71025 0.0186751 4.72547 0.0232156C4.74141 0.0279715 4.75782 0.0314865 4.77332 0.037864C4.79434 0.0465288 4.81342 0.0587577 4.83289 0.0700906C4.84101 0.0748193 4.85037 0.0775615 4.85828 0.0827859C4.88656 0.101469 4.91254 0.123357 4.9364 0.147239L9.02039 4.23025C9.21526 4.42538 9.21513 4.74206 9.02039 4.93728C8.82521 5.13246 8.50864 5.13229 8.31336 4.93728L5.08289 1.70681V8.66775C5.08264 8.94364 4.85882 9.16768 4.58289 9.16775C4.3069 9.16775 4.08314 8.94368 4.08289 8.66775V1.70681L0.853396 4.93728C0.658217 5.13246 0.341647 5.13229 0.146365 4.93728C-0.0487341 4.742 -0.0488427 4.42545 0.146365 4.23025L4.22937 0.147239C4.2944 0.0822564 4.37297 0.0400053 4.45594 0.0183328C4.46544 0.0158402 4.47454 0.011482 4.48426 0.00954373Z" fill="#181715"/>
</svg>
