<svg preserveAspectRatio="none" width="100%" height="100%" overflow="visible" style="display: block;" viewBox="0 0 15.1992 15.1991" fill="none" xmlns="http://www.w3.org/2000/svg">
<path id="Union" d="M7.17578 0.175736C7.4101 -0.0585786 7.78912 -0.0585786 8.02344 0.175736L15.0234 7.17574C15.0663 7.21858 15.0988 7.26756 15.126 7.31831C15.171 7.4025 15.1992 7.49735 15.1992 7.59956C15.1992 7.70149 15.1708 7.79583 15.126 7.87984C15.0988 7.93084 15.0665 7.98036 15.0234 8.02339L8.02344 15.0234C7.78913 15.2577 7.41009 15.2577 7.17578 15.0234C6.94148 14.7891 6.94151 14.4101 7.17578 14.1757L13.1523 8.19917H0.599609C0.268266 8.19917 4.50278e-05 7.9309 0 7.59956C0 7.26819 0.268239 6.99995 0.599609 6.99995H13.1523L7.17578 1.02339C6.94148 0.789091 6.94151 0.410054 7.17578 0.175736Z" fill="#181715"/>
</svg>
