<svg preserveAspectRatio="none" width="100%" height="100%" overflow="visible" style="display: block;" viewBox="0 0 15.5 15.4998" fill="none" xmlns="http://www.w3.org/2000/svg">
<path id="Union" d="M7.21973 0.21967C7.51262 -0.0732233 7.98738 -0.0732233 8.28027 0.21967L15.2803 7.21967C15.3287 7.26807 15.366 7.32314 15.3984 7.37983C15.414 7.40698 15.4303 7.43369 15.4424 7.46283C15.4631 7.51283 15.4779 7.56453 15.4873 7.61713C15.495 7.66026 15.5 7.70459 15.5 7.74994C15.5 7.79466 15.4948 7.83824 15.4873 7.8808C15.4779 7.93375 15.4632 7.98574 15.4424 8.03608C15.4215 8.08644 15.3951 8.13355 15.3643 8.17768C15.3393 8.21338 15.3121 8.24835 15.2803 8.28022L8.28027 15.2802C7.98739 15.573 7.51261 15.573 7.21973 15.2802C6.92685 14.9873 6.92688 14.5126 7.21973 14.2197L12.9395 8.49994H0.75C0.335818 8.49994 5.1278e-05 8.16411 0 7.74994C0 7.33573 0.335786 6.99994 0.75 6.99994H12.9395L7.21973 1.28022C6.92685 0.987339 6.92688 0.512567 7.21973 0.21967Z" fill="#181715"/>
</svg>
