<svg preserveAspectRatio="none" width="100%" height="100%" overflow="visible" style="display: block;" viewBox="0 0 14.9999 14.9999" fill="none" xmlns="http://www.w3.org/2000/svg">
<path id="Union" d="M7.14648 0.146447C7.34175 -0.0488155 7.65825 -0.0488155 7.85352 0.146447L14.8535 7.14645C14.8874 7.18031 14.9134 7.21887 14.9355 7.25875C14.9601 7.30296 14.98 7.3502 14.9902 7.40133C15.0032 7.46607 15.0031 7.53286 14.9902 7.59762C14.9801 7.6488 14.96 7.69593 14.9355 7.7402C14.9134 7.78035 14.8876 7.81942 14.8535 7.85348L7.85352 14.8535C7.65826 15.0487 7.34174 15.0487 7.14648 14.8535C6.95123 14.6582 6.95124 14.3417 7.14648 14.1464L13.293 7.99996H0.5C0.22387 7.99996 2.0615e-05 7.77609 0 7.49996C0 7.22382 0.223858 6.99996 0.5 6.99996H13.293L7.14648 0.853478C6.95123 0.658222 6.95124 0.34171 7.14648 0.146447Z" fill="#181715"/>
</svg>
