<svg preserveAspectRatio="none" width="100%" height="100%" overflow="visible" style="display: block;" viewBox="0 0 21.0002 21.0004" fill="none" xmlns="http://www.w3.org/2000/svg">
<path id="Union" d="M8.18578 0.25802C10.3944 -0.240978 12.7055 -0.0121598 14.7737 0.909387C15.0258 1.02185 15.139 1.31738 15.0266 1.56954C14.9141 1.82133 14.6185 1.93464 14.3664 1.82247C12.4953 0.988807 10.4046 0.782156 8.40649 1.23361C6.4083 1.6851 4.60955 2.77107 3.27856 4.32833C1.9478 5.88554 1.15552 7.83127 1.02074 9.87521C0.886068 11.9192 1.41559 13.9527 2.53051 15.6711C3.64551 17.3895 5.28675 18.7014 7.20824 19.4113C9.12969 20.1211 11.2293 20.1913 13.1936 19.6106C15.1579 19.0298 16.8821 17.8291 18.1086 16.1887C19.3351 14.5481 19.9989 12.5544 20.0002 10.5061V9.58614C20.0002 9.31 20.2241 9.08615 20.5002 9.08614C20.7764 9.08617 21.0002 9.31002 21.0002 9.58614V10.5061L20.9914 10.9299C20.9048 13.0441 20.1813 15.0873 18.9104 16.7873C17.5547 18.6006 15.6489 19.9275 13.4778 20.5695C11.3066 21.2115 8.98537 21.1344 6.86157 20.3498C4.73775 19.5652 2.92402 18.1144 1.69164 16.2151C0.459469 14.3158 -0.126074 12.0688 0.022698 9.80978C0.171672 7.55053 1.04778 5.39912 2.51879 3.67794C3.98981 1.95699 5.97749 0.757043 8.18578 0.25802ZM20.1467 2.15255C20.3419 1.95737 20.6585 1.95745 20.8538 2.15255C21.0487 2.34775 21.0488 2.66436 20.8538 2.85958L10.8538 12.8693C10.76 12.963 10.6328 13.0158 10.5002 13.0158C10.3677 13.0158 10.2405 12.963 10.1467 12.8693L7.14672 9.86935C6.95164 9.67414 6.95168 9.35755 7.14672 9.16232C7.34195 8.96721 7.65852 8.96721 7.85375 9.16232L10.4993 11.8078L20.1467 2.15255Z" fill="#181715"/>
</svg>
