<svg preserveAspectRatio="none" width="100%" height="100%" overflow="visible" style="display: block;" viewBox="0 0 21.2 21.2004" fill="none" xmlns="http://www.w3.org/2000/svg">
<path id="Union" d="M8.26417 0.260479C10.4935 -0.243173 12.8268 -0.012407 14.9146 0.917706C15.2171 1.05259 15.353 1.40806 15.2183 1.71067C15.0834 2.013 14.7288 2.1489 14.4263 2.01439C12.5749 1.18961 10.5058 0.984781 8.52882 1.43138C6.55179 1.87814 4.77153 2.95213 3.4546 4.4929C2.13767 6.03372 1.35366 7.95964 1.22023 9.98216C1.08694 12.0045 1.61137 14.0162 2.71437 15.7165C3.8175 17.4168 5.44118 18.7152 7.3423 19.4177C9.24353 20.1201 11.3215 20.1895 13.2651 19.615C15.209 19.0402 16.9147 17.8518 18.1284 16.2283C19.342 14.6049 19.9992 12.633 20.0005 10.6062V9.68626C20.0007 9.3552 20.2691 9.08591 20.6001 9.08567C20.9314 9.08567 21.1995 9.35505 21.1997 9.68626V10.6062L21.1909 11.0339C21.1036 13.1684 20.3734 15.2306 19.0903 16.947C17.7218 18.7777 15.7978 20.1172 13.606 20.7654C11.4141 21.4134 9.07034 21.3358 6.92628 20.5437C4.78245 19.7515 2.9515 18.2872 1.70753 16.3699C0.463646 14.4524 -0.127384 12.1837 0.0229594 9.90306C0.173419 7.62236 1.05747 5.45112 2.54249 3.7136C4.02755 1.97608 6.0347 0.764275 8.26417 0.260479ZM20.1753 2.18235C20.4093 1.94815 20.7895 1.94785 21.0239 2.18138C21.2583 2.41548 21.2588 2.79556 21.0249 3.03001L11.0249 13.0398C10.9124 13.1524 10.7593 13.2165 10.6001 13.2165C10.4413 13.2164 10.2887 13.1529 10.1763 13.0408L7.17628 10.0408C6.94237 9.80642 6.94213 9.42631 7.17628 9.19212C7.41043 8.95809 7.78962 8.95836 8.02394 9.19212L10.5991 11.7673L20.1753 2.18235Z" fill="#181715"/>
</svg>
