<svg preserveAspectRatio="none" width="100%" height="100%" overflow="visible" style="display: block;" viewBox="0 0 21.4998 21.4996" fill="none" xmlns="http://www.w3.org/2000/svg">
<path id="Union" d="M8.38071 0.264337C10.6417 -0.246486 13.0075 -0.012972 15.1248 0.930353C15.5031 1.09888 15.673 1.54232 15.5047 1.92059C15.3361 2.29894 14.8928 2.46905 14.5145 2.30047C12.6927 1.48881 10.6572 1.2878 8.71176 1.72723C6.76626 2.16679 5.01456 3.2238 3.7186 4.73992C2.42271 6.25611 1.65169 8.1511 1.52035 10.1413C1.38917 12.1314 1.90471 14.1107 2.99008 15.7839C4.07564 17.4571 5.67296 18.7351 7.54379 19.4264C9.41487 20.1177 11.4601 20.1854 13.3729 19.6198C15.2855 19.0542 16.9638 17.8852 18.158 16.2878C19.3521 14.6904 19.9986 12.7499 19.9998 10.7555V9.83563C20.0001 9.42165 20.3358 9.08564 20.7498 9.08563C21.1639 9.08563 21.4996 9.42164 21.4998 9.83563V10.7555L21.4911 11.1901C21.4023 13.3545 20.6611 15.4458 19.3602 17.1862C17.9722 19.0429 16.0207 20.401 13.7977 21.0583C11.5747 21.7155 9.19873 21.637 7.02426 20.8337C4.84987 20.0303 2.99296 18.5449 1.73129 16.6003C0.469974 14.6558 -0.129158 12.3554 0.0232841 10.0427C0.175901 7.72974 1.07196 5.52738 2.57797 3.76531C4.08408 2.00329 6.11971 0.775206 8.38071 0.264337ZM20.2196 2.22527C20.5123 1.93282 20.9872 1.93295 21.2801 2.22527C21.5728 2.51797 21.5725 2.99285 21.2801 3.28582L11.2801 13.2956C11.1395 13.4363 10.9488 13.5153 10.7498 13.5153C10.5509 13.5153 10.3602 13.4362 10.2196 13.2956L7.21957 10.2956C6.92705 10.0027 6.9268 9.52781 7.21957 9.23504C7.51237 8.94262 7.98731 8.94264 8.28012 9.23504L10.7489 11.7038L20.2196 2.22527Z" fill="#181715"/>
</svg>
