<svg preserveAspectRatio="none" width="100%" height="100%" overflow="visible" style="display: block;" viewBox="0 0 13.1992 13.1992" fill="none" xmlns="http://www.w3.org/2000/svg">
<path id="Union" d="M12.5996 8C12.931 8 13.1992 8.26824 13.1992 8.59961V11.2666C13.1991 11.7792 12.9963 12.2713 12.6338 12.6338C12.2713 12.9963 11.7792 13.1991 11.2666 13.1992H1.93262C1.41998 13.1991 0.927923 12.9963 0.56543 12.6338C0.202936 12.2713 8.61853e-05 11.7792 0 11.2666V8.59961C0 8.26824 0.268239 8 0.599609 8C0.93098 8 1.19922 8.26824 1.19922 8.59961V11.2666C1.1993 11.461 1.27661 11.6477 1.41406 11.7852C1.55151 11.9226 1.73824 11.9999 1.93262 12H11.2666C11.461 11.9999 11.6477 11.9226 11.7852 11.7852C11.9226 11.6477 11.9999 11.461 12 11.2666V8.59961C12 8.26824 12.2682 8 12.5996 8ZM6.59961 0C6.93098 0 7.19922 0.268239 7.19922 0.599609V7.15039L9.50879 4.8418C9.74311 4.6076 10.1231 4.60752 10.3574 4.8418C10.5914 5.07604 10.5914 5.45521 10.3574 5.68945L7.02441 9.02344C6.97762 9.07023 6.92329 9.10472 6.86719 9.13281C6.85432 9.13928 6.84248 9.14778 6.8291 9.15332C6.81072 9.16091 6.79137 9.16521 6.77246 9.1709C6.754 9.17647 6.73596 9.18371 6.7168 9.1875C6.63978 9.20271 6.56043 9.20267 6.4834 9.1875C6.45669 9.18226 6.43155 9.17272 6.40625 9.16406C6.39467 9.16011 6.38246 9.158 6.37109 9.15332C6.35266 9.14571 6.33581 9.13531 6.31836 9.12598C6.26756 9.09883 6.21863 9.06623 6.17578 9.02344L2.84277 5.68945C2.60846 5.45514 2.60846 5.07611 2.84277 4.8418C3.0771 4.6076 3.45616 4.60752 3.69043 4.8418L6 7.15039V0.599609C6 0.268239 6.26824 0 6.59961 0Z" fill="#181715"/>
</svg>
