<svg preserveAspectRatio="none" width="100%" height="100%" overflow="visible" style="display: block;" viewBox="0 0 11.5 11.5" fill="none" xmlns="http://www.w3.org/2000/svg">
<path id="Union" d="M11 7C11.2761 7 11.5 7.22386 11.5 7.5V9.83301C11.5 10.275 11.3243 10.6992 11.0117 11.0117C10.6992 11.3243 10.275 11.5 9.83301 11.5H1.66699C1.22496 11.5 0.800842 11.3243 0.488281 11.0117C0.175721 10.6992 0 10.275 0 9.83301V7.5C0 7.22386 0.223858 7 0.5 7C0.776142 7 1 7.22386 1 7.5V9.83301C1 10.0098 1.07029 10.1797 1.19531 10.3047C1.32034 10.4297 1.49018 10.5 1.66699 10.5H9.83301C10.0098 10.5 10.1797 10.4297 10.3047 10.3047C10.4297 10.1797 10.5 10.0098 10.5 9.83301V7.5C10.5 7.22386 10.7239 7 11 7ZM5.75 0C6.02614 0 6.25 0.223858 6.25 0.5V6.29199L8.3125 4.23047C8.50767 4.0353 8.82425 4.03549 9.01953 4.23047C9.21479 4.42573 9.21479 4.74224 9.01953 4.9375L6.10352 7.85449C6.03841 7.91956 5.95909 7.95983 5.87598 7.98145C5.86645 7.98393 5.85739 7.98831 5.84766 7.99023C5.78311 8.00299 5.71689 8.00309 5.65234 7.99023C5.63655 7.98711 5.62167 7.98114 5.60645 7.97656C5.59036 7.97172 5.57422 7.96743 5.55859 7.96094C5.54846 7.95672 5.53908 7.95114 5.5293 7.94629C5.48191 7.9228 5.43596 7.8939 5.39648 7.85449L2.47949 4.9375C2.28439 4.74227 2.28439 4.4257 2.47949 4.23047C2.67471 4.03525 2.99125 4.03533 3.18652 4.23047L5.25 6.29395V0.5C5.25 0.223858 5.47386 0 5.75 0Z" fill="#181715"/>
</svg>
