<svg preserveAspectRatio="none" width="100%" height="100%" overflow="visible" style="display: block;" viewBox="0 0 16.5 16.5" fill="none" xmlns="http://www.w3.org/2000/svg">
<path id="Union" d="M15.75 10C16.1642 10 16.5 10.3358 16.5 10.75V14.083C16.5 14.7239 16.2452 15.3388 15.792 15.792C15.3388 16.2452 14.7239 16.5 14.083 16.5H2.41699C1.77605 16.5 1.16122 16.2452 0.708008 15.792C0.254795 15.3388 0 14.7239 0 14.083V10.75C0 10.3358 0.335786 10 0.75 10C1.16421 10 1.5 10.3358 1.5 10.75V14.083C1.5 14.3261 1.59665 14.5595 1.76855 14.7314C1.94046 14.9034 2.17388 15 2.41699 15H14.083C14.3261 15 14.5595 14.9034 14.7314 14.7314C14.9034 14.5595 15 14.3261 15 14.083V10.75C15 10.3358 15.3358 10 15.75 10ZM8.25 0C8.66421 0 9 0.335786 9 0.75V8.93848L11.8857 6.05371C12.1785 5.76091 12.6534 5.7611 12.9463 6.05371C13.2392 6.3466 13.2392 6.82136 12.9463 7.11426L8.78027 11.2812C8.71475 11.3467 8.63924 11.3955 8.55957 11.4316C8.55295 11.4347 8.54676 11.4386 8.54004 11.4414C8.48388 11.4649 8.42555 11.48 8.36621 11.4893C8.33515 11.4941 8.30368 11.4971 8.27148 11.498C8.25679 11.4985 8.24223 11.4985 8.22754 11.498C8.19502 11.4971 8.16319 11.4942 8.13184 11.4893C8.07289 11.4799 8.01476 11.4649 7.95898 11.4414C7.94918 11.4373 7.94025 11.4313 7.93066 11.4268C7.85482 11.3909 7.78246 11.3439 7.71973 11.2812L3.55273 7.11426C3.26 6.8214 3.26 6.34657 3.55273 6.05371C3.84559 5.76086 4.32038 5.76094 4.61328 6.05371L7.5 8.94043V0.75C7.5 0.335786 7.83579 0 8.25 0Z" fill="#181715"/>
</svg>
