<svg preserveAspectRatio="none" width="100%" height="100%" overflow="visible" style="display: block;" viewBox="0 0 21.6211 21.6211" fill="none" xmlns="http://www.w3.org/2000/svg">
<path id="Union" d="M9.75 2.12109C10.1642 2.12109 10.5 2.45688 10.5 2.87109C10.5 3.28531 10.1642 3.62109 9.75 3.62109H2.75C2.41848 3.62109 2.10063 3.75288 1.86621 3.9873C1.63179 4.22173 1.5 4.53957 1.5 4.87109V18.8711C1.5 19.2026 1.63179 19.5205 1.86621 19.7549C2.10063 19.9893 2.41848 20.1211 2.75 20.1211H16.75C17.0815 20.1211 17.3994 19.9893 17.6338 19.7549C17.8682 19.5205 18 19.2026 18 18.8711V11.8711C18 11.4569 18.3358 11.1211 18.75 11.1211C19.1642 11.1211 19.5 11.4569 19.5 11.8711V18.8711C19.5 19.6004 19.2101 20.2997 18.6943 20.8154C18.1786 21.3312 17.4793 21.6211 16.75 21.6211H2.75C2.02065 21.6211 1.32139 21.3312 0.805664 20.8154C0.28994 20.2997 5.05127e-07 19.6004 0 18.8711V4.87109C0 4.14175 0.289939 3.44248 0.805664 2.92676C1.32139 2.41103 2.02065 2.12109 2.75 2.12109H9.75ZM18.75 0C19.5115 1.95342e-07 20.2418 0.302414 20.7803 0.84082C21.3187 1.37924 21.621 2.10965 21.6211 2.87109C21.6211 3.63256 21.3187 4.3629 20.7803 4.90137L11.2803 14.4014C11.1842 14.4975 11.0635 14.5657 10.9316 14.5986L6.93164 15.5986C6.67611 15.6624 6.40597 15.5876 6.21973 15.4014C6.03353 15.2151 5.95859 14.945 6.02246 14.6895L7.02246 10.6895L7.05371 10.5928C7.0913 10.4988 7.14766 10.4129 7.21973 10.3408L16.7197 0.84082C17.2582 0.302414 17.9885 -8.02337e-09 18.75 0ZM18.75 1.5C18.3864 1.5 18.0374 1.64427 17.7803 1.90137L8.42676 11.2539L7.78027 13.8398L10.3662 13.1934L19.7197 3.84082C19.9768 3.58366 20.1211 3.23474 20.1211 2.87109C20.121 2.50748 19.9768 2.15849 19.7197 1.90137C19.4626 1.64427 19.1136 1.5 18.75 1.5Z" fill="#181715"/>
</svg>
