<svg preserveAspectRatio="none" width="100%" height="100%" overflow="visible" style="display: block;" viewBox="0 0 21.3213 21.3203" fill="none" xmlns="http://www.w3.org/2000/svg">
<path id="Union" d="M9.59961 2.12109C9.93098 2.12109 10.1992 2.38933 10.1992 2.7207C10.1992 3.05207 9.93098 3.32031 9.59961 3.32031H2.59961C2.22831 3.32031 1.87193 3.46792 1.60938 3.73047C1.34682 3.99302 1.19922 4.3494 1.19922 4.7207V18.7207C1.19922 19.092 1.34682 19.4484 1.60938 19.7109C1.87193 19.9735 2.22831 20.1211 2.59961 20.1211H16.5996C16.9709 20.1211 17.3273 19.9735 17.5898 19.7109C17.8524 19.4484 18 19.092 18 18.7207V11.7207C18 11.3893 18.2682 11.1211 18.5996 11.1211C18.931 11.1211 19.1992 11.3893 19.1992 11.7207V18.7207C19.1992 19.4103 18.9261 20.072 18.4385 20.5596C17.9509 21.0472 17.2892 21.3203 16.5996 21.3203H2.59961C1.91005 21.3203 1.24834 21.0472 0.760742 20.5596C0.273148 20.072 5.05203e-07 19.4103 0 18.7207V4.7207C0 4.03114 0.273148 3.36943 0.760742 2.88184C1.24834 2.39424 1.91005 2.12109 2.59961 2.12109H9.59961ZM18.5996 0C19.3213 1.95368e-07 20.0131 0.286599 20.5234 0.796875C21.0337 1.30717 21.3212 1.99905 21.3213 2.7207C21.3213 3.44244 21.0338 4.13516 20.5234 4.64551L11.0234 14.1455C10.9466 14.2222 10.8504 14.2764 10.7451 14.3027L6.74512 15.3027C6.54082 15.3538 6.3248 15.2943 6.17578 15.1455C6.02675 14.9965 5.96646 14.7797 6.01758 14.5752L7.01758 10.5752L7.04297 10.498C7.07304 10.4229 7.11818 10.3545 7.17578 10.2969L16.6758 0.796875C17.1861 0.2866 17.8779 -7.60419e-09 18.5996 0ZM18.5996 1.19922C18.1961 1.19922 17.8087 1.3602 17.5234 1.64551L8.14062 11.0273L7.42383 13.8955L10.2939 13.1787L19.6758 3.79688C19.961 3.51158 20.1211 3.12413 20.1211 2.7207C20.121 2.31748 19.9608 1.93072 19.6758 1.64551C19.3905 1.36021 19.0031 1.19922 18.5996 1.19922Z" fill="#181715"/>
</svg>
