<svg preserveAspectRatio="none" width="100%" height="100%" overflow="visible" style="display: block;" viewBox="0 0 21.1211 21.1211" fill="none" xmlns="http://www.w3.org/2000/svg">
<path id="Union" d="M9.5 2.12109C9.77614 2.12109 10 2.34495 10 2.62109C10 2.89724 9.77614 3.12109 9.5 3.12109H2.5C2.10218 3.12109 1.72076 3.27924 1.43945 3.56055C1.15815 3.84185 1 4.22327 1 4.62109V18.6211C1 19.0189 1.15815 19.4003 1.43945 19.6816C1.72076 19.9629 2.10218 20.1211 2.5 20.1211H16.5C16.8978 20.1211 17.2792 19.9629 17.5605 19.6816C17.8419 19.4003 18 19.0189 18 18.6211V11.6211C18 11.345 18.2239 11.1211 18.5 11.1211C18.7761 11.1211 19 11.345 19 11.6211V18.6211C19 19.2841 18.7364 19.9198 18.2676 20.3887C17.7987 20.8575 17.163 21.1211 16.5 21.1211H2.5C1.83696 21.1211 1.20126 20.8575 0.732422 20.3887C0.263581 19.9198 5.05127e-07 19.2841 0 18.6211V4.62109C0 3.95805 0.263581 3.32236 0.732422 2.85352C1.20126 2.38467 1.83696 2.12109 2.5 2.12109H9.5ZM18.5 0C19.1952 1.95339e-07 19.8619 0.276056 20.3535 0.767578C20.8451 1.25912 21.121 1.92596 21.1211 2.62109C21.1211 3.31626 20.845 3.98303 20.3535 4.47461L10.8535 13.9746C10.7894 14.0387 10.709 14.0845 10.6211 14.1064L6.62109 15.1064C6.45076 15.149 6.27063 15.0988 6.14648 14.9746C6.02238 14.8504 5.97207 14.6703 6.01465 14.5L7.01465 10.5C7.03663 10.4121 7.0824 10.3317 7.14648 10.2676L16.6465 0.767578C17.1381 0.276056 17.8048 -7.32474e-09 18.5 0ZM18.5 1C18.0701 1 17.6576 1.17062 17.3535 1.47461L7.95117 10.876L7.18652 13.9346L10.2432 13.1699L19.6465 3.76758C19.9505 3.46353 20.1211 3.05104 20.1211 2.62109C20.121 2.19117 19.9505 1.77861 19.6465 1.47461C19.3424 1.17062 18.9299 1 18.5 1Z" fill="#181715"/>
</svg>
