<svg preserveAspectRatio="none" width="100%" height="100%" overflow="visible" style="display: block;" viewBox="0 0 11.5 11.499" fill="none" xmlns="http://www.w3.org/2000/svg">
<path id="Union" d="M5.75 0C7.27499 4.73561e-08 8.7371 0.606236 9.81543 1.68457C10.8938 2.7629 11.5 4.22501 11.5 5.75V9.83301C11.4999 10.2748 11.3241 10.6983 11.0117 11.0107C10.6992 11.3233 10.275 11.499 9.83301 11.499H9.25C8.80797 11.499 8.38385 11.3233 8.07129 11.0107C7.75901 10.6983 7.58309 10.2748 7.58301 9.83301V8.08301C7.58301 7.64106 7.75883 7.21684 8.07129 6.9043C8.38385 6.59174 8.80797 6.41602 9.25 6.41602H10.5V5.75C10.5 4.49022 9.9992 3.2824 9.1084 2.3916C8.2176 1.5008 7.00978 1 5.75 1C4.49022 1 3.2824 1.5008 2.3916 2.3916C1.5008 3.2824 1 4.49022 1 5.75V6.41602H2.25C2.69203 6.41602 3.11615 6.59174 3.42871 6.9043C3.74117 7.21684 3.91699 7.64106 3.91699 8.08301V9.83301C3.91691 10.2748 3.74099 10.6983 3.42871 11.0107C3.11615 11.3233 2.69203 11.499 2.25 11.499H1.66699C1.22496 11.499 0.800842 11.3233 0.488281 11.0107C0.175899 10.6983 8.60393e-05 10.2748 0 9.83301V5.75C2.27242e-08 4.22501 0.606236 2.7629 1.68457 1.68457C2.7629 0.606236 4.22501 0 5.75 0ZM1 9.83301C1.00009 10.0096 1.07047 10.1788 1.19531 10.3037C1.32034 10.4287 1.49018 10.499 1.66699 10.499H2.25C2.42681 10.499 2.59666 10.4287 2.72168 10.3037C2.84642 10.1788 2.91691 10.0095 2.91699 9.83301V8.08301C2.91699 7.90627 2.8466 7.73634 2.72168 7.61133C2.59666 7.4863 2.42681 7.41602 2.25 7.41602H1V9.83301ZM9.25 7.41602C9.07319 7.41602 8.90334 7.4863 8.77832 7.61133C8.6534 7.73634 8.58301 7.90627 8.58301 8.08301V9.83301C8.58309 10.0095 8.65358 10.1788 8.77832 10.3037C8.90334 10.4287 9.07319 10.499 9.25 10.499H9.83301C10.0098 10.499 10.1797 10.4287 10.3047 10.3037C10.4295 10.1788 10.4999 10.0096 10.5 9.83301V7.41602H9.25Z" fill="#181715"/>
</svg>
