<svg preserveAspectRatio="none" width="100%" height="100%" overflow="visible" style="display: block;" viewBox="0 0 16.5 16.499" fill="none" xmlns="http://www.w3.org/2000/svg">
<path id="Union" d="M8.25 0C10.438 4.73564e-08 12.5368 0.868841 14.084 2.41602C15.6312 3.96319 16.5 6.06196 16.5 8.25V14.083C16.4999 14.7238 16.2451 15.3389 15.792 15.792C15.3388 16.245 14.7238 16.499 14.083 16.499H13.25C12.6091 16.499 11.9942 16.2451 11.541 15.792C11.0879 15.3389 10.8331 14.7238 10.833 14.083V11.583C10.833 10.9421 11.0879 10.3272 11.541 9.87402C11.9942 9.42081 12.6091 9.16602 13.25 9.16602H15V8.25C15 6.45979 14.2893 4.74243 13.0234 3.47656C11.7576 2.21069 10.0402 1.5 8.25 1.5C6.45979 1.5 4.74243 2.21069 3.47656 3.47656C2.21069 4.74243 1.5 6.45979 1.5 8.25V9.16602H3.25C3.89094 9.16602 4.50577 9.42081 4.95898 9.87402C5.4121 10.3272 5.66699 10.9421 5.66699 11.583V14.083C5.66691 14.7238 5.41212 15.3389 4.95898 15.792C4.50579 16.2451 3.89086 16.499 3.25 16.499H2.41699C1.77621 16.499 1.16119 16.245 0.708008 15.792C0.254872 15.3389 8.60613e-05 14.7238 0 14.083V8.25C3.26043e-08 6.06196 0.868841 3.96319 2.41602 2.41602C3.96319 0.868841 6.06196 0 8.25 0ZM1.5 14.083C1.50009 14.3259 1.59682 14.5587 1.76855 14.7305C1.94046 14.9024 2.17388 14.999 2.41699 14.999H3.25C3.49311 14.999 3.72653 14.9024 3.89844 14.7305C4.07007 14.5587 4.16691 14.3259 4.16699 14.083V11.583C4.16699 11.34 4.07024 11.1065 3.89844 10.9346C3.72653 10.7627 3.49311 10.666 3.25 10.666H1.5V14.083ZM13.25 10.666C13.0069 10.666 12.7735 10.7627 12.6016 10.9346C12.4298 11.1065 12.333 11.34 12.333 11.583V14.083C12.3331 14.3259 12.4299 14.5587 12.6016 14.7305C12.7735 14.9024 13.0069 14.999 13.25 14.999H14.083C14.3261 14.999 14.5595 14.9024 14.7314 14.7305C14.9032 14.5587 14.9999 14.3259 15 14.083V10.666H13.25Z" fill="#181715"/>
</svg>
