<svg preserveAspectRatio="none" width="100%" height="100%" overflow="visible" style="display: block;" viewBox="0 0 16.5003 16.5003" fill="none" xmlns="http://www.w3.org/2000/svg">
<path id="Union" d="M9.12533 0.000976562C11.0464 0.107136 12.8615 0.917865 14.222 2.27832C15.5824 3.63885 16.3933 5.45392 16.4994 7.375C16.5001 7.38875 16.5003 7.40322 16.5003 7.41699V7.83105L16.4876 8.28711C16.4278 9.34774 16.1506 10.3867 15.6702 11.3379L15.6693 11.3369C15.0191 12.6369 14.0208 13.7315 12.7845 14.4961C11.5476 15.261 10.1216 15.6664 8.66732 15.667V15.666C7.55721 15.6687 6.46202 15.4295 5.45345 14.9717L0.987632 16.4619C0.718216 16.5517 0.420926 16.481 0.220054 16.2803C0.0191885 16.0794 -0.0514185 15.7822 0.0384135 15.5127L1.52767 11.0459C1.06988 10.0371 0.83044 8.94139 0.833335 7.83105C0.834271 6.37733 1.23962 4.95225 2.00423 3.71582C2.72136 2.55627 3.72832 1.60516 4.92318 0.955078L5.16537 0.829102C6.25118 0.281331 7.45114 -0.00193854 8.66732 0.000976562V0H9.08334L9.12533 0.000976562ZM8.66537 1.5C7.68372 1.49744 6.71446 1.72739 5.83822 2.16992L5.83529 2.1709C4.78362 2.69657 3.89905 3.50495 3.2806 4.50488C2.66209 5.50503 2.33379 6.65804 2.33334 7.83398V7.83496C2.33078 8.81672 2.56062 9.78579 3.00326 10.6621C3.09322 10.8405 3.1084 11.0478 3.04525 11.2373L1.93587 14.5635L5.26302 13.4551C5.45254 13.392 5.65989 13.4071 5.83822 13.4971C6.71446 13.9396 7.68372 14.1696 8.66537 14.167H8.66634C9.84216 14.1665 10.9954 13.8382 11.9954 13.2197C12.9953 12.6013 13.8038 11.7167 14.3294 10.665L14.3304 10.6621C14.773 9.78583 15.0029 8.81667 15.0003 7.83496V7.44531C14.9118 5.8975 14.2569 4.43635 13.1605 3.33984C12.064 2.24341 10.6028 1.5886 9.05502 1.5H8.66537Z" fill="#181715"/>
</svg>
