<svg preserveAspectRatio="none" width="100%" height="100%" overflow="visible" style="display: block;" viewBox="0 0 11.5002 11.5002" fill="none" xmlns="http://www.w3.org/2000/svg">
<path id="Union" d="M6.36151 0.000976562C7.70005 0.0749369 8.96432 0.639979 9.91229 1.58789C10.8603 2.53587 11.4252 3.80009 11.4992 5.13867C11.4997 5.14784 11.5002 5.15781 11.5002 5.16699V5.45703L11.4914 5.77441C11.4498 6.5128 11.2552 7.23517 10.9211 7.89746L10.9221 7.89844C10.469 8.8048 9.77305 9.56757 8.91131 10.1006C8.04942 10.6336 7.05554 10.9156 6.04217 10.916C5.2655 10.9179 4.49925 10.7503 3.79412 10.4287L0.658382 11.4746C0.478767 11.5344 0.280531 11.4874 0.146663 11.3535C0.0128529 11.2196 -0.0342689 11.0214 0.0255696 10.8418L1.07049 7.70508C0.749111 6.99995 0.581162 6.23364 0.583187 5.45703C0.583787 4.44398 0.86677 3.45049 1.39959 2.58887C1.93259 1.72716 2.69542 1.03114 3.60174 0.578125C4.35843 0.196278 5.19459 -0.00104576 6.04217 0.000976562V0H6.33319L6.36151 0.000976562ZM6.04022 1C5.34928 0.998284 4.6677 1.16019 4.05096 1.47168L4.04901 1.47266C3.30866 1.84271 2.68554 2.4113 2.25018 3.11523C1.81482 3.81926 1.58351 4.63122 1.58319 5.45898V5.45996C1.58143 6.15089 1.74341 6.83247 2.05487 7.44922C2.11494 7.56815 2.12526 7.70659 2.08319 7.83301L1.29119 10.209L3.66717 9.41699L3.76385 9.39551C3.86148 9.38344 3.96183 9.40033 4.05096 9.44531C4.66767 9.75676 5.34933 9.91871 6.04022 9.91699H6.04119C6.86894 9.91667 7.68093 9.68534 8.38494 9.25C9.08891 8.81462 9.65747 8.19156 10.0275 7.45117L10.0285 7.44922C10.34 6.83241 10.5019 6.15097 10.5002 5.45996V5.18164C10.437 4.09334 9.9763 3.06597 9.20526 2.29492C8.43399 1.52371 7.40618 1.06291 6.31756 1H6.04022Z" fill="#181715"/>
</svg>
