<svg preserveAspectRatio="none" width="100%" height="100%" overflow="visible" style="display: block;" viewBox="0 0 13.1996 13.1995" fill="none" xmlns="http://www.w3.org/2000/svg">
<path id="Union" d="M7.30015 0.000976562C8.83687 0.0859655 10.289 0.733965 11.3773 1.82227C12.4657 2.91075 13.1138 4.36343 13.1986 5.90039C13.1992 5.91113 13.1996 5.92187 13.1996 5.93262V6.26465C13.2021 7.23901 12.9748 8.20059 12.5355 9.07031L12.5345 9.06934C12.0144 10.1092 11.2158 10.9841 10.2269 11.5957C9.23751 12.2076 8.09724 12.5316 6.93394 12.5322V12.5332L6.93296 12.5322C6.04493 12.5343 5.16846 12.3438 4.36167 11.9775L0.789407 13.1689C0.573961 13.2406 0.336751 13.1839 0.176126 13.0234C0.0155023 12.8628 -0.0411074 12.6257 0.0306181 12.4102L1.22105 8.83691C0.854757 8.02981 0.664044 7.15299 0.66636 6.26465C0.667073 5.10157 0.992108 3.96187 1.60386 2.97266C2.21538 1.98388 3.08956 1.18425 4.12925 0.664062C4.99838 0.225119 5.9593 -0.00126521 6.93296 0.000976562V0H7.26695L7.30015 0.000976562ZM6.93199 1.19922C6.14668 1.19717 5.37125 1.38134 4.67027 1.73535L4.66831 1.73633C3.82692 2.15684 3.11917 2.80355 2.62437 3.60352C2.12956 4.40363 1.86692 5.32585 1.86656 6.2666V6.26758C1.86451 7.05297 2.04762 7.82825 2.40171 8.5293C2.47374 8.67199 2.48638 8.8376 2.43589 8.98926L1.5482 11.6504L4.21031 10.7637L4.32652 10.7373C4.44358 10.7229 4.56341 10.7439 4.67027 10.7979C5.37125 11.1519 6.14669 11.3351 6.93199 11.333H6.93296C7.8736 11.3326 8.79603 11.0699 9.59605 10.5752C10.396 10.0804 11.0427 9.37261 11.4632 8.53125L11.4642 8.5293C11.8183 7.82828 12.0024 7.05294 12.0003 6.26758V5.95312C11.9289 4.71589 11.4051 3.54746 10.5287 2.6709C9.65193 1.79417 8.48301 1.2705 7.24546 1.19922H6.93199Z" fill="#181715"/>
</svg>
