<svg preserveAspectRatio="none" width="100%" height="100%" overflow="visible" style="display: block;" viewBox="0 0 9.16699 9.16699" fill="none" xmlns="http://www.w3.org/2000/svg">
<path id="Union" d="M4.58301 0C4.85915 0 5.08301 0.223858 5.08301 0.5V4.08398H8.66699C8.94287 4.08429 9.16699 4.30803 9.16699 4.58398C9.16699 4.85994 8.94287 5.08368 8.66699 5.08398H5.08301V8.66699C5.08283 8.94299 4.85904 9.16699 4.58301 9.16699C4.30697 9.16699 4.08318 8.94299 4.08301 8.66699V5.08398H0.5C0.223858 5.08398 0 4.86013 0 4.58398C0 4.30784 0.223858 4.08398 0.5 4.08398H4.08301V0.5C4.08301 0.223858 4.30687 0 4.58301 0Z" fill="#181715"/>
</svg>
