<svg preserveAspectRatio="none" width="100%" height="100%" overflow="visible" style="display: block;" viewBox="0 0 13.167 13.167" fill="none" xmlns="http://www.w3.org/2000/svg">
<path id="Union" d="M6.58301 0C6.99722 0 7.33301 0.335786 7.33301 0.75V5.83398H12.417L12.4932 5.83789C12.8713 5.87633 13.167 6.19568 13.167 6.58398C13.167 6.97229 12.8713 7.29164 12.4932 7.33008L12.417 7.33398H7.33301V12.417L7.3291 12.4932C7.29078 12.8714 6.9714 13.167 6.58301 13.167C6.19462 13.167 5.87524 12.8714 5.83691 12.4932L5.83301 12.417V7.33398H0.75C0.335786 7.33398 0 6.9982 0 6.58398C0 6.16977 0.335786 5.83398 0.75 5.83398H5.83301V0.75C5.83301 0.335786 6.16879 0 6.58301 0Z" fill="#181715"/>
</svg>
