<svg preserveAspectRatio="none" width="100%" height="100%" overflow="visible" style="display: block;" viewBox="0 0 10.5332 10.5332" fill="none" xmlns="http://www.w3.org/2000/svg">
<path id="Union" d="M5.2666 0C5.59797 0 5.86621 0.268239 5.86621 0.599609V4.66602H9.93262C10.264 4.66602 10.5332 4.93425 10.5332 5.26562C10.5332 5.597 10.264 5.86523 9.93262 5.86523H5.86621V9.93262C5.86621 10.264 5.59797 10.5332 5.2666 10.5332C4.93523 10.5332 4.66699 10.264 4.66699 9.93262V5.86523H0.599609C0.268351 5.8651 0 5.59691 0 5.26562C0 4.93434 0.268351 4.66615 0.599609 4.66602H4.66699V0.599609C4.66699 0.268239 4.93523 0 5.2666 0Z" fill="#181715"/>
</svg>
