<svg preserveAspectRatio="none" width="100%" height="100%" overflow="visible" style="display: block;" viewBox="0 0 13.1999 13.1991" fill="none" xmlns="http://www.w3.org/2000/svg">
<path id="Union" d="M5.93262 0C9.2094 0 11.866 2.65588 11.8662 5.93262C11.8662 7.3549 11.3647 8.65954 10.5303 9.68164L13.0244 12.1748C13.2584 12.4091 13.2584 12.7892 13.0244 13.0234C12.7902 13.2577 12.4101 13.2575 12.1758 13.0234L9.68262 10.5293C8.66036 11.3643 7.3554 11.8662 5.93262 11.8662C2.65588 11.866 0 9.2094 0 5.93262C0.000176012 2.65599 2.65599 0.000176009 5.93262 0ZM5.93262 1.19922C3.31873 1.19939 1.19939 3.31873 1.19922 5.93262C1.19922 8.54666 3.31862 10.6658 5.93262 10.666C7.22528 10.666 8.39576 10.1466 9.25 9.30664C9.25885 9.29653 9.26673 9.28503 9.27637 9.27539C9.28609 9.26567 9.29741 9.25793 9.30762 9.24902C10.147 8.39487 10.666 7.22478 10.666 5.93262C10.6658 3.31862 8.54666 1.19922 5.93262 1.19922Z" fill="#181715"/>
</svg>
