<svg preserveAspectRatio="none" width="100%" height="100%" overflow="visible" style="display: block;" viewBox="0 0 11.4997 11.4998" fill="none" xmlns="http://www.w3.org/2000/svg">
<path id="Union" d="M5.16699 0C8.02031 0.000176005 10.333 2.31363 10.333 5.16699C10.3329 6.41354 9.89134 7.5568 9.15625 8.44922L11.3535 10.6465C11.5485 10.8417 11.5485 11.1583 11.3535 11.3535C11.1583 11.5487 10.8418 11.5485 10.6465 11.3535L8.44922 9.15625C7.5568 9.89134 6.41354 10.3329 5.16699 10.333C2.31363 10.333 0.000176002 8.02031 0 5.16699C0 2.31352 2.31352 0 5.16699 0ZM5.16699 1C2.86581 1 1 2.86581 1 5.16699C1.00018 7.46803 2.86591 9.33301 5.16699 9.33301C6.30453 9.33292 7.33417 8.87571 8.08594 8.13672C8.09369 8.12779 8.10089 8.11786 8.10938 8.10938C8.11795 8.10081 8.1277 8.09375 8.13672 8.08594C8.87571 7.33417 9.33292 6.30453 9.33301 5.16699C9.33301 2.86591 7.46803 1.00018 5.16699 1Z" fill="#181715"/>
</svg>
