<svg preserveAspectRatio="none" width="100%" height="100%" overflow="visible" style="display: block;" viewBox="0 0 19.4997 19.4998" fill="none" xmlns="http://www.w3.org/2000/svg">
<path id="Union" d="M8.75 0C13.5825 0 17.5 3.91751 17.5 8.75C17.5 10.8962 16.7257 12.8606 15.4434 14.3828L19.2803 18.2197C19.5728 18.5126 19.5728 18.9874 19.2803 19.2803C18.9875 19.5731 18.5126 19.5729 18.2197 19.2803L14.3828 15.4434C12.8606 16.7257 10.8962 17.5 8.75 17.5C3.91751 17.5 0 13.5825 0 8.75C0 3.91751 3.91751 0 8.75 0ZM8.75 1.5C4.74594 1.5 1.5 4.74594 1.5 8.75C1.5 12.7541 4.74594 16 8.75 16C10.7155 16 12.4969 15.2163 13.8027 13.9463C13.823 13.9197 13.8459 13.8944 13.8701 13.8701C13.894 13.8463 13.9192 13.8246 13.9453 13.8047C15.2162 12.4987 16 10.7163 16 8.75C16 4.74594 12.7541 1.5 8.75 1.5Z" fill="#181715"/>
</svg>
