<svg preserveAspectRatio="none" width="100%" height="100%" overflow="visible" style="display: block;" viewBox="0 0 15.8662 15.8662" fill="none" xmlns="http://www.w3.org/2000/svg">
<path id="Union" d="M7.93262 0C8.44513 6.44657e-05 8.93732 0.203121 9.2998 0.56543C9.66222 0.927911 9.86612 1.42004 9.86621 1.93262V1.99023C9.8666 2.08772 9.89541 2.18336 9.94922 2.26465C9.98959 2.32558 10.0427 2.37711 10.1045 2.41504L10.1689 2.44824L10.1748 2.4502V2.45117C10.266 2.49137 10.3677 2.50304 10.4658 2.48535C10.564 2.4675 10.6552 2.42038 10.7266 2.35059L10.7617 2.31543L10.9023 2.1875C11.049 2.06707 11.2137 1.96845 11.3896 1.89551C11.6242 1.7984 11.8761 1.74902 12.1299 1.74902C12.3838 1.74909 12.6356 1.79828 12.8701 1.89551C13.1046 1.99275 13.3176 2.13585 13.4971 2.31543L13.625 2.45605C13.7454 2.60267 13.8441 2.76652 13.917 2.94238C14.0142 3.17696 14.0644 3.42869 14.0645 3.68262C14.0645 3.93647 14.0141 4.18832 13.917 4.42285C13.844 4.59881 13.7454 4.76348 13.625 4.91016L13.4971 5.05078L13.4619 5.08594L13.4141 5.14258C13.3705 5.20287 13.3405 5.27286 13.3271 5.34668C13.3094 5.44485 13.322 5.54643 13.3623 5.6377C13.3804 5.67872 13.3929 5.72185 13.4014 5.76562C13.4389 5.82528 13.4886 5.87672 13.5479 5.91602C13.6291 5.96979 13.7248 5.99961 13.8223 6H13.9326C14.4451 6.00006 14.9373 6.20312 15.2998 6.56543C15.6622 6.92791 15.8661 7.42004 15.8662 7.93262C15.8662 8.44531 15.6623 8.93725 15.2998 9.2998C14.9373 9.66232 14.4453 9.86615 13.9326 9.86621H13.875C13.7778 9.86666 13.6827 9.89564 13.6016 9.94922C13.5204 10.003 13.4564 10.0795 13.418 10.1689L12.8662 9.93262L13.415 10.1748C13.3748 10.2661 13.3631 10.3676 13.3809 10.4658C13.3987 10.5641 13.4458 10.6552 13.5156 10.7266L13.5508 10.7617C13.7304 10.9412 13.8725 11.1551 13.9697 11.3896C14.0669 11.6243 14.1172 11.8759 14.1172 12.1299C14.1172 12.3838 14.067 12.6355 13.9697 12.8701C13.8968 13.046 13.7981 13.2098 13.6777 13.3564L13.5508 13.4971C13.3713 13.6767 13.1575 13.8197 12.9229 13.917C12.6884 14.0141 12.4364 14.0644 12.1826 14.0645C11.9287 14.0644 11.6769 14.0142 11.4424 13.917C11.2665 13.8441 11.1027 13.7453 10.9561 13.625L10.8154 13.4971L10.7803 13.4619L10.7227 13.4141C10.6625 13.3707 10.5931 13.3405 10.5195 13.3271C10.4213 13.3094 10.3198 13.3221 10.2285 13.3623L10.2227 13.3643C10.1331 13.4026 10.0568 13.4667 10.0029 13.5479C9.94909 13.6292 9.92031 13.7248 9.91992 13.8223V13.9326C9.91992 14.4452 9.71589 14.9373 9.35352 15.2998C8.99102 15.6623 8.49897 15.8661 7.98633 15.8662C7.47363 15.8662 6.9817 15.6623 6.61914 15.2998C6.25666 14.9372 6.05273 14.4453 6.05273 13.9326V13.8867C6.05034 13.7866 6.01822 13.6889 5.95996 13.6074C5.90165 13.526 5.81957 13.4643 5.72559 13.4297C5.71383 13.4254 5.70189 13.4201 5.69043 13.415C5.59917 13.3748 5.49755 13.3631 5.39941 13.3809C5.30126 13.3987 5.21099 13.4459 5.13965 13.5156L5.13867 13.5146L5.10352 13.5498L5.10449 13.5508C4.92501 13.7305 4.71115 13.8724 4.47656 13.9697C4.24195 14.067 3.9903 14.1171 3.73633 14.1172C3.48236 14.1172 3.23072 14.0669 2.99609 13.9697C2.76149 13.8725 2.54767 13.7304 2.36816 13.5508V13.5498C2.18884 13.3705 2.04636 13.1571 1.94922 12.9229C1.85203 12.6883 1.80176 12.4365 1.80176 12.1826C1.8018 11.9287 1.85197 11.677 1.94922 11.4424C2.0465 11.2078 2.18947 10.9949 2.36914 10.8154L2.4082 10.7754C2.4756 10.7047 2.52064 10.6157 2.53809 10.5195C2.55589 10.4213 2.54421 10.3199 2.50391 10.2285L2.50098 10.2227C2.46264 10.1333 2.39936 10.0567 2.31836 10.0029C2.25738 9.96255 2.18796 9.93562 2.11621 9.9248L2.04395 9.91992H1.93262C1.42004 9.91984 0.927911 9.71593 0.56543 9.35352C0.202957 8.99097 1.37508e-05 8.499 0 7.98633C0 7.47366 0.202977 6.98169 0.56543 6.61914C0.927911 6.25672 1.42004 6.05282 1.93262 6.05273H1.97852C2.07865 6.05034 2.17632 6.01819 2.25781 5.95996C2.33934 5.9016 2.40191 5.81969 2.43652 5.72559L2.45117 5.69043C2.49133 5.59917 2.50313 5.49753 2.48535 5.39941C2.46753 5.30132 2.42024 5.21098 2.35059 5.13965V5.13867L2.31543 5.10352C2.13587 4.92406 1.99273 4.71107 1.89551 4.47656C1.79828 4.24193 1.74903 3.99031 1.74902 3.73633C1.74902 3.48236 1.79829 3.23071 1.89551 2.99609C1.9928 2.76142 2.1357 2.5477 2.31543 2.36816C2.49481 2.18876 2.70803 2.04639 2.94238 1.94922C3.17693 1.85202 3.42873 1.8018 3.68262 1.80176C3.93646 1.80179 4.18834 1.85206 4.42285 1.94922C4.65747 2.04651 4.87128 2.18944 5.05078 2.36914L5.09082 2.4082C5.16148 2.4755 5.25057 2.52066 5.34668 2.53809C5.44481 2.55576 5.54647 2.54417 5.6377 2.50391L5.75586 2.46582C5.75866 2.46527 5.76184 2.46539 5.76465 2.46484C5.82456 2.42727 5.87657 2.37777 5.91602 2.31836C5.96944 2.23764 5.99922 2.14266 6 2.0459V1.93262C6.00009 1.41998 6.20294 0.927923 6.56543 0.56543C6.92791 0.203013 7.42004 8.62545e-05 7.93262 0ZM7.93262 1.19922C7.7383 1.1993 7.5515 1.27669 7.41406 1.41406C7.27661 1.55151 7.1993 1.73824 7.19922 1.93262V2.04883C7.19787 2.38024 7.09995 2.70413 6.91699 2.98047C6.73397 3.25683 6.47359 3.47388 6.16895 3.60449C6.11913 3.62581 6.06615 3.63731 6.0127 3.64453C5.73145 3.74613 5.42743 3.77328 5.13184 3.71973C4.79782 3.65911 4.48979 3.49906 4.24707 3.26172L4.20215 3.2168C4.1341 3.14867 4.0528 3.09452 3.96387 3.05762C3.87492 3.02074 3.77891 3.00198 3.68262 3.00195C3.58652 3.002 3.49114 3.02088 3.40234 3.05762C3.3134 3.09449 3.23213 3.1487 3.16406 3.2168V3.21777C3.09602 3.28574 3.04178 3.36627 3.00488 3.45508C2.96798 3.5441 2.94824 3.63996 2.94824 3.73633C2.94825 3.83268 2.96798 3.92857 3.00488 4.01758C3.02324 4.06175 3.04582 4.10397 3.07227 4.14355L3.16406 4.25488L3.20898 4.2998C3.44639 4.54259 3.60543 4.85143 3.66602 5.18555C3.72656 5.51955 3.68578 5.86422 3.54883 6.1748L3.54785 6.17383C3.42792 6.47931 3.22337 6.74427 2.95605 6.93555C2.67867 7.13394 2.34777 7.24491 2.00684 7.25293H1.93262C1.7383 7.25302 1.5515 7.3304 1.41406 7.46777C1.27665 7.60528 1.19922 7.79193 1.19922 7.98633C1.19923 8.18074 1.27663 8.36738 1.41406 8.50488C1.5515 8.64226 1.7383 8.71964 1.93262 8.71973H2.04883C2.38015 8.72113 2.7042 8.81904 2.98047 9.00195C3.25681 9.18501 3.47391 9.44533 3.60449 9.75H3.60352C3.7386 10.0591 3.77985 10.4014 3.71973 10.7334C3.65914 11.0676 3.49918 11.3763 3.26172 11.6191L3.2168 11.6641C3.14867 11.7321 3.09451 11.8134 3.05762 11.9023C3.02082 11.9912 3.002 12.0864 3.00195 12.1826C3.00195 12.279 3.02071 12.3748 3.05762 12.4639C3.09452 12.5528 3.14864 12.6341 3.2168 12.7021H3.21777C3.28574 12.7701 3.36629 12.8245 3.45508 12.8613C3.54405 12.8982 3.64003 12.917 3.73633 12.917C3.8326 12.917 3.92864 12.8982 4.01758 12.8613C4.10632 12.8244 4.18696 12.7701 4.25488 12.7021L4.2998 12.6572C4.5426 12.4198 4.85138 12.2608 5.18555 12.2002C5.50678 12.142 5.83754 12.1781 6.13867 12.3027H6.13965C6.45971 12.4205 6.73715 12.6328 6.93555 12.9102C7.13389 13.1876 7.24495 13.5184 7.25293 13.8594V13.9326C7.25293 14.127 7.33033 14.3137 7.46777 14.4512C7.60529 14.5886 7.79189 14.666 7.98633 14.666C8.18071 14.6659 8.36743 14.5886 8.50488 14.4512C8.64222 14.3137 8.71973 14.127 8.71973 13.9326V13.8174C8.72105 13.486 8.81907 13.1621 9.00195 12.8857C9.18387 12.6111 9.4419 12.3945 9.74414 12.2637L9.8623 12.2168C10.1408 12.1181 10.4412 12.0936 10.7334 12.1465C11.0258 12.1995 11.2992 12.3281 11.5254 12.5186L11.6191 12.6045L11.624 12.6084L11.6641 12.6484L11.7754 12.7402C11.8152 12.7668 11.8579 12.7892 11.9023 12.8076C11.9912 12.8444 12.0864 12.8642 12.1826 12.8643C12.2789 12.8642 12.3749 12.8445 12.4639 12.8076C12.5527 12.7707 12.6342 12.7165 12.7021 12.6484L12.7939 12.5371C12.8205 12.4974 12.8429 12.4545 12.8613 12.4102C12.8981 12.3213 12.917 12.2261 12.917 12.1299C12.917 12.0335 12.8982 11.9376 12.8613 11.8486C12.8429 11.8042 12.8205 11.7615 12.7939 11.7217L12.7021 11.6104L12.6572 11.5654C12.4199 11.3227 12.2608 11.0146 12.2002 10.6807C12.14 10.3485 12.1793 10.0055 12.3145 9.69629C12.445 9.39175 12.6623 9.13222 12.9385 8.94922C13.2147 8.76631 13.5388 8.66742 13.8701 8.66602H13.9326C14.127 8.66595 14.3137 8.58864 14.4512 8.45117C14.5886 8.31366 14.666 8.12705 14.666 7.93262C14.6659 7.7383 14.5885 7.5515 14.4512 7.41406C14.3137 7.2768 14.1269 7.19928 13.9326 7.19922H13.8174C13.486 7.1979 13.1621 7.09986 12.8857 6.91699C12.6093 6.73395 12.3923 6.47364 12.2617 6.16895C12.2407 6.1199 12.228 6.06822 12.2207 6.01562C12.1184 5.73364 12.0927 5.42834 12.1465 5.13184C12.2071 4.79775 12.3671 4.48981 12.6045 4.24707L12.6084 4.24219L12.6484 4.20215C12.7165 4.13413 12.7707 4.05274 12.8076 3.96387C12.8445 3.87487 12.8643 3.77896 12.8643 3.68262C12.8642 3.5864 12.8445 3.49124 12.8076 3.40234C12.7892 3.3579 12.7668 3.3152 12.7402 3.27539L12.6484 3.16406C12.5804 3.09593 12.4991 3.04179 12.4102 3.00488C12.3213 2.96807 12.226 2.94831 12.1299 2.94824C12.0336 2.94824 11.9376 2.96803 11.8486 3.00488C11.7598 3.04176 11.6784 3.09601 11.6104 3.16406L11.5654 3.20898C11.3228 3.44615 11.0145 3.60538 10.6807 3.66602C10.3465 3.7266 10.0011 3.6859 9.69043 3.54883V3.54785C9.38849 3.41698 9.131 3.2012 8.94922 2.92676C8.76623 2.65037 8.66734 2.32659 8.66602 1.99512V1.93262C8.66593 1.7383 8.58855 1.5515 8.45117 1.41406C8.31373 1.2768 8.12687 1.19928 7.93262 1.19922ZM7.93262 5.33398C9.36856 5.33398 10.5322 6.49765 10.5322 7.93359C10.5322 9.36953 9.36856 10.5332 7.93262 10.5332C6.49668 10.5332 5.33301 9.36953 5.33301 7.93359C5.33301 6.49765 6.49668 5.33398 7.93262 5.33398ZM7.93262 6.5332C7.15942 6.5332 6.53223 7.1604 6.53223 7.93359C6.53223 8.70679 7.15942 9.33398 7.93262 9.33398C8.70582 9.33398 9.33301 8.70679 9.33301 7.93359C9.33301 7.1604 8.70582 6.5332 7.93262 6.5332Z" fill="#181715"/>
</svg>
