<svg preserveAspectRatio="none" width="100%" height="100%" overflow="visible" style="display: block;" viewBox="0 0 23.5 23.5" fill="none" xmlns="http://www.w3.org/2000/svg">
<path id="Union" d="M11.75 0C12.4793 0 13.1786 0.289939 13.6943 0.805664C14.2101 1.32139 14.5 2.02065 14.5 2.75V2.83691L14.5098 2.96777C14.5292 3.09674 14.5769 3.22044 14.6494 3.33008C14.722 3.43974 14.8175 3.53228 14.9287 3.60059L15.0459 3.66113L15.0527 3.66406C15.2173 3.73667 15.4002 3.75767 15.5771 3.72559C15.7539 3.69344 15.9175 3.60904 16.0459 3.4834L16.0996 3.42969L16.2998 3.24805C16.5084 3.07673 16.7419 2.93676 16.9922 2.83301C17.3259 2.69469 17.6836 2.62306 18.0449 2.62305C18.4062 2.62305 18.7639 2.69472 19.0977 2.83301C19.4314 2.97134 19.7349 3.17416 19.9902 3.42969L20.1719 3.62988C20.3432 3.83852 20.4832 4.07197 20.5869 4.32227C20.7252 4.65603 20.7969 5.01371 20.7969 5.375C20.7969 5.73629 20.7252 6.09397 20.5869 6.42773C20.4832 6.67803 20.3432 6.91148 20.1719 7.12012L19.9902 7.32031L19.9365 7.37402L19.8496 7.47656C19.7713 7.58493 19.7185 7.71015 19.6943 7.84277C19.6623 8.01968 19.6833 8.2027 19.7559 8.36719C19.7819 8.42622 19.7994 8.48836 19.8096 8.55176C19.8789 8.67096 19.9741 8.77391 20.0898 8.85059C20.2361 8.9474 20.4076 8.9993 20.583 9H20.75C21.4793 9 22.1786 9.28994 22.6943 9.80566C23.2101 10.3214 23.5 11.0207 23.5 11.75C23.5 12.4793 23.2101 13.1786 22.6943 13.6943C22.1786 14.2101 21.4793 14.5 20.75 14.5H20.6631L20.5322 14.5098C20.4033 14.5292 20.2796 14.5769 20.1699 14.6494C20.0236 14.7463 19.908 14.8846 19.8389 15.0459L19.1504 14.75L19.8359 15.0527C19.7633 15.2173 19.7423 15.4002 19.7744 15.5771C19.8066 15.7539 19.891 15.9175 20.0166 16.0459L20.0703 16.0996L20.252 16.2998C20.4233 16.5084 20.5632 16.7419 20.667 16.9922C20.8053 17.3259 20.8769 17.6836 20.877 18.0449C20.877 18.4062 20.8053 18.7639 20.667 19.0977C20.5633 19.3479 20.4232 19.5814 20.252 19.79L20.0703 19.9902C19.815 20.2458 19.5115 20.4486 19.1777 20.5869C18.844 20.7252 18.4863 20.7969 18.125 20.7969C17.7637 20.7969 17.406 20.7252 17.0723 20.5869C16.822 20.4832 16.5885 20.3432 16.3799 20.1719L16.1797 19.9902L16.126 19.9365L16.0234 19.8496C15.9151 19.7713 15.7898 19.7185 15.6572 19.6943C15.4803 19.6623 15.2973 19.6833 15.1328 19.7559L15.125 19.7598C14.9639 19.8289 14.8263 19.9437 14.7295 20.0898C14.6327 20.2361 14.5808 20.4076 14.5801 20.583V20.75C14.5801 21.4793 14.2901 22.1786 13.7744 22.6943C13.2587 23.21 12.5594 23.5 11.8301 23.5C11.1008 23.5 10.4015 23.21 9.88574 22.6943C9.37002 22.1786 9.08008 21.4793 9.08008 20.75V20.6777L9.06738 20.5439C9.04428 20.4115 8.991 20.2851 8.91211 20.1748C8.80707 20.0281 8.66058 19.9158 8.49121 19.8535C8.4764 19.8481 8.46171 19.8423 8.44727 19.8359C8.28275 19.7633 8.09979 19.7423 7.92285 19.7744C7.74608 19.8066 7.58255 19.891 7.4541 20.0166L7.40039 20.0703C7.14504 20.3259 6.84154 20.5286 6.50781 20.667C6.17406 20.8053 5.81636 20.8769 5.45508 20.877C5.09382 20.877 4.73608 20.8053 4.40234 20.667C4.15209 20.5633 3.91858 20.4232 3.70996 20.252L3.50977 20.0703C3.2542 19.815 3.05143 19.5115 2.91309 19.1777C2.77477 18.844 2.70312 18.4863 2.70312 18.125C2.70312 17.7637 2.77477 17.406 2.91309 17.0723C3.05143 16.7385 3.2542 16.435 3.50977 16.1797L3.56348 16.126C3.68911 15.9975 3.77351 15.834 3.80566 15.6572C3.83774 15.4803 3.81671 15.2973 3.74414 15.1328L3.74023 15.125C3.67107 14.9639 3.55634 14.8263 3.41016 14.7295C3.30052 14.6569 3.17682 14.6093 3.04785 14.5898L2.91699 14.5801H2.75C2.02067 14.5801 1.32139 14.2901 0.805664 13.7744C0.289958 13.2587 2.07094e-05 12.5594 0 11.8301C0 11.1008 0.289964 10.4015 0.805664 9.88574C1.32139 9.37002 2.02065 9.08008 2.75 9.08008H2.82227C3.00281 9.07586 3.17831 9.01717 3.3252 8.91211C3.47193 8.80707 3.58419 8.66058 3.64648 8.49121L3.66406 8.44727C3.73667 8.28275 3.75767 8.09979 3.72559 7.92285C3.69344 7.74608 3.60904 7.58255 3.4834 7.4541L3.42969 7.40039C3.17412 7.14504 2.97135 6.84155 2.83301 6.50781C2.69469 6.17406 2.62306 5.81635 2.62305 5.45508C2.62305 5.09382 2.69472 4.73608 2.83301 4.40234C2.97134 4.06864 3.17416 3.7651 3.42969 3.50977L3.62988 3.32812C3.83852 3.15681 4.07197 3.01684 4.32227 2.91309C4.65603 2.77477 5.01371 2.70312 5.375 2.70312C5.73629 2.70312 6.09397 2.77477 6.42773 2.91309C6.76147 3.05143 7.06496 3.2542 7.32031 3.50977L7.37402 3.56348C7.50246 3.68911 7.66602 3.77351 7.84277 3.80566C8.01968 3.83774 8.20269 3.81671 8.36719 3.74414L8.44043 3.71582C8.4768 3.70413 8.51407 3.69547 8.55176 3.68945C8.67078 3.62017 8.774 3.5258 8.85059 3.41016C8.94687 3.26468 8.99874 3.09433 9 2.91992V2.75C9 2.02065 9.28994 1.32139 9.80566 0.805664C10.3214 0.289939 11.0207 0 11.75 0ZM11.75 1.5C11.4185 1.5 11.1006 1.63179 10.8662 1.86621C10.6318 2.10063 10.5 2.41848 10.5 2.75V2.92285C10.4981 3.3909 10.359 3.84804 10.1006 4.23828C9.84224 4.62838 9.47591 4.93474 9.0459 5.11914C8.97508 5.14949 8.89963 5.16828 8.82324 5.17578C8.42491 5.32052 7.99409 5.35818 7.5752 5.28223C7.10348 5.19662 6.66792 4.97099 6.3252 4.63574L6.25977 4.57031C6.14367 4.45409 6.00526 4.36173 5.85352 4.29883C5.70179 4.23595 5.53924 4.20312 5.375 4.20312C5.21076 4.20312 5.04821 4.23595 4.89648 4.29883C4.78279 4.34596 4.67682 4.40951 4.58203 4.4873L4.49023 4.57031C4.37401 4.6864 4.28166 4.82481 4.21875 4.97656C4.1559 5.12826 4.12305 5.29088 4.12305 5.45508C4.12306 5.6193 4.15587 5.78189 4.21875 5.93359C4.28166 6.08534 4.37401 6.22375 4.49023 6.33984L4.55078 6.39941L4.55664 6.40527H4.55566C4.89092 6.74801 5.11655 7.18354 5.20215 7.65527C5.28726 8.12466 5.23026 8.60898 5.03906 9.0459C4.87035 9.48211 4.57815 9.86039 4.19727 10.1328C3.80564 10.4128 3.33872 10.5688 2.85742 10.5801H2.75C2.41848 10.5801 2.10063 10.7119 1.86621 10.9463C1.63181 11.1807 1.5 11.4986 1.5 11.8301C1.50002 12.1616 1.63181 12.4795 1.86621 12.7139C2.10063 12.9483 2.4185 13.0801 2.75 13.0801H2.92285C3.39073 13.0819 3.84813 13.2203 4.23828 13.4785C4.62634 13.7355 4.93151 14.1002 5.11621 14.5273L5.18262 14.6934C5.32231 15.087 5.35711 15.5118 5.28223 15.9248C5.19662 16.3965 4.97099 16.8321 4.63574 17.1748L4.57031 17.2402C4.45409 17.3563 4.36173 17.4947 4.29883 17.6465C4.23595 17.7982 4.20312 17.9608 4.20312 18.125L4.20898 18.248C4.22105 18.3701 4.2517 18.4898 4.29883 18.6035C4.36173 18.7553 4.45409 18.8937 4.57031 19.0098L4.66211 19.0928C4.75687 19.1705 4.8629 19.2341 4.97656 19.2812C5.12826 19.3441 5.29088 19.377 5.45508 19.377C5.6193 19.3769 5.78189 19.3441 5.93359 19.2812C6.08534 19.2183 6.22375 19.126 6.33984 19.0098L6.39941 18.9492L6.40527 18.9434C6.74799 18.6082 7.18359 18.3834 7.65527 18.2979C8.1271 18.2123 8.61404 18.2703 9.05273 18.4639H9.05176C9.4854 18.6329 9.86166 18.9236 10.1328 19.3027C10.4128 19.6944 10.5688 20.1613 10.5801 20.6426V20.75C10.5801 21.0815 10.7119 21.3994 10.9463 21.6338C11.1807 21.8682 11.4986 22 11.8301 22C12.1616 22 12.4795 21.8682 12.7139 21.6338C12.9483 21.3994 13.0801 21.0815 13.0801 20.75V20.5771C13.0819 20.1093 13.2203 19.6519 13.4785 19.2617C13.7363 18.8725 14.1024 18.5664 14.5312 18.3818C14.9689 18.1897 15.4544 18.1325 15.9248 18.2178C16.3376 18.2927 16.7226 18.4743 17.042 18.7432L17.1748 18.8643L17.2402 18.9297L17.332 19.0127C17.4268 19.0905 17.5328 19.154 17.6465 19.2012C17.7982 19.2641 17.9608 19.2969 18.125 19.2969C18.2892 19.2969 18.4518 19.2641 18.6035 19.2012C18.7553 19.1383 18.8937 19.0459 19.0098 18.9297L19.0928 18.8379C19.1705 18.7431 19.2341 18.6371 19.2812 18.5234C19.3441 18.3717 19.377 18.2091 19.377 18.0449C19.3769 17.8807 19.3441 17.7181 19.2812 17.5664C19.2341 17.4527 19.1706 17.3467 19.0928 17.252L19.0098 17.1602L18.9492 17.1006L18.9434 17.0947V17.0938C18.6084 16.7511 18.3834 16.3162 18.2979 15.8447C18.2123 15.3729 18.2703 14.886 18.4639 14.4473C18.6486 14.0202 18.9538 13.6564 19.3418 13.3994C19.732 13.141 20.1892 13.0019 20.6572 13H20.75C21.0815 13 21.3994 12.8682 21.6338 12.6338C21.8682 12.3994 22 12.0815 22 11.75C22 11.4185 21.8682 11.1006 21.6338 10.8662C21.3994 10.6318 21.0815 10.5 20.75 10.5H20.5771C20.1091 10.4981 19.652 10.359 19.2617 10.1006C18.8716 9.84224 18.5653 9.47591 18.3809 9.0459C18.3505 8.97505 18.3307 8.89967 18.3232 8.82324C18.1786 8.425 18.1418 7.99398 18.2178 7.5752C18.3034 7.10348 18.529 6.66792 18.8643 6.3252L18.9297 6.25977L19.0127 6.16797C19.0905 6.07318 19.154 5.96721 19.2012 5.85352C19.2641 5.70179 19.2969 5.53923 19.2969 5.375C19.2969 5.21077 19.2641 5.04821 19.2012 4.89648C19.154 4.78279 19.0905 4.67682 19.0127 4.58203L18.9297 4.49023C18.8136 4.37401 18.6752 4.28166 18.5234 4.21875C18.3717 4.1559 18.2091 4.12305 18.0449 4.12305C17.8807 4.12306 17.7181 4.15587 17.5664 4.21875C17.4527 4.26588 17.3467 4.32943 17.252 4.40723L17.1602 4.49023L17.1006 4.55078L17.0947 4.55664L17.0938 4.55566C16.751 4.89086 16.3164 5.11656 15.8447 5.20215C15.3752 5.28728 14.8911 5.22941 14.4541 5.03809V5.03906C14.4528 5.03849 14.4515 5.03768 14.4502 5.03711C14.4493 5.0367 14.4482 5.03655 14.4473 5.03613V5.03516C14.0204 4.85043 13.6563 4.54612 13.3994 4.1582C13.141 3.76798 13.0019 3.3108 13 2.84277V2.75C13 2.41848 12.8682 2.10063 12.6338 1.86621C12.3994 1.63179 12.0815 1.5 11.75 1.5ZM11.75 8C13.8211 8 15.5 9.67893 15.5 11.75C15.5 13.8211 13.8211 15.5 11.75 15.5C9.67893 15.5 8 13.8211 8 11.75C8 9.67893 9.67893 8 11.75 8ZM11.75 9.5C10.5074 9.5 9.5 10.5074 9.5 11.75C9.5 12.9926 10.5074 14 11.75 14C12.9926 14 14 12.9926 14 11.75C14 10.5074 12.9926 9.5 11.75 9.5Z" fill="#181715"/>
</svg>
