<svg preserveAspectRatio="none" width="100%" height="100%" overflow="visible" style="display: block;" viewBox="0 0 13.833 13.833" fill="none" xmlns="http://www.w3.org/2000/svg">
<path id="Union" d="M6.91699 0C7.35877 8.62175e-05 7.78227 0.175975 8.09473 0.488281C8.40729 0.800842 8.58301 1.22496 8.58301 1.66699V1.7168C8.58337 1.80694 8.61041 1.89553 8.66016 1.9707C8.69743 2.02699 8.74666 2.07429 8.80371 2.10938L8.86328 2.14062L8.86816 2.14258C8.95259 2.17984 9.04689 2.19119 9.1377 2.1748C9.22857 2.15833 9.31286 2.11436 9.37891 2.0498L9.41016 2.01855C9.56471 1.86398 9.74829 1.74099 9.9502 1.65723C10.1525 1.57338 10.3699 1.53031 10.5889 1.53027C10.8076 1.53029 11.0244 1.57354 11.2266 1.65723C11.4284 1.74091 11.612 1.8641 11.7666 2.01855C11.9215 2.17326 12.045 2.35736 12.1289 2.55957C12.2128 2.7619 12.2559 2.97922 12.2559 3.19824C12.2558 3.41714 12.2127 3.63372 12.1289 3.83594C12.066 3.98763 11.9818 4.12942 11.8779 4.25586L11.7676 4.37695L11.7363 4.4082L11.6924 4.46094C11.6523 4.5165 11.6247 4.58048 11.6123 4.64844C11.5958 4.73932 11.6073 4.83346 11.6445 4.91797C11.6602 4.95355 11.6697 4.99126 11.6768 5.0293C11.7118 5.08656 11.76 5.13545 11.8164 5.17285C11.8915 5.2225 11.9794 5.24956 12.0693 5.25H12.167C12.6088 5.25009 13.0323 5.42598 13.3447 5.73828C13.6573 6.05084 13.833 6.47496 13.833 6.91699C13.8329 7.3589 13.6572 7.78224 13.3447 8.09473C13.0323 8.40713 12.6088 8.58292 12.167 8.58301H12.1162L12.0488 8.58887C11.9827 8.59892 11.9186 8.6229 11.8623 8.66016C11.7874 8.70985 11.7289 8.78071 11.6934 8.86328L11.2334 8.66699L11.6904 8.86816C11.6532 8.95266 11.6427 9.04682 11.6592 9.1377C11.6757 9.22857 11.7186 9.31286 11.7832 9.37891L11.8135 9.40918H11.8145C11.9693 9.56386 12.0919 9.74803 12.1758 9.9502C12.2597 10.1525 12.3027 10.3698 12.3027 10.5889C12.3027 10.8077 12.2596 11.0244 12.1758 11.2266C12.1128 11.3784 12.0278 11.52 11.9238 11.6465L11.8145 11.7676C11.6597 11.9224 11.4757 12.0451 11.2734 12.1289C11.0713 12.2127 10.8546 12.2558 10.6357 12.2559C10.4168 12.2558 10.1993 12.2127 9.99707 12.1289C9.84544 12.066 9.70354 11.9818 9.57715 11.8779L9.45605 11.7676L9.42578 11.7363L9.37305 11.6924C9.31731 11.6521 9.2528 11.6247 9.18457 11.6123C9.09371 11.5959 8.99951 11.6073 8.91504 11.6445L8.91016 11.6465C8.82743 11.682 8.75675 11.7413 8.70703 11.8164C8.6574 11.8915 8.63027 11.9793 8.62988 12.0693V12.167C8.6298 12.6089 8.45402 13.0323 8.1416 13.3447C7.82905 13.6572 7.40486 13.833 6.96289 13.833C6.52111 13.8328 6.09755 13.6571 5.78516 13.3447C5.47279 13.0323 5.29696 12.6088 5.29688 12.167V12.126L5.29004 12.0566C5.27811 11.9888 5.25136 11.9237 5.21094 11.8672C5.15696 11.7918 5.08115 11.7341 4.99414 11.7021C4.98436 11.6985 4.97438 11.6946 4.96484 11.6904C4.88037 11.6532 4.78614 11.6427 4.69531 11.6592C4.6047 11.6757 4.52098 11.7188 4.45508 11.7832L4.42383 11.8145C4.2691 11.9693 4.08503 12.0919 3.88281 12.1758C3.68054 12.2596 3.46309 12.3027 3.24414 12.3027C3.02535 12.3026 2.80856 12.2596 2.60645 12.1758C2.45462 12.1128 2.31305 12.0278 2.18652 11.9238L2.06543 11.8145C1.91065 11.6597 1.78791 11.4756 1.7041 11.2734C1.62034 11.0713 1.57719 10.8546 1.57715 10.6357C1.57715 10.4167 1.62025 10.1994 1.7041 9.99707C1.78794 9.79488 1.9106 9.61077 2.06543 9.45605L2.09961 9.42285C2.16271 9.35727 2.20441 9.27416 2.2207 9.18457C2.23719 9.09364 2.22677 8.99958 2.18945 8.91504L2.1875 8.91016C2.152 8.82737 2.09265 8.75681 2.01758 8.70703C1.94241 8.6573 1.8538 8.63024 1.76367 8.62988H1.66699C1.22505 8.62982 0.800784 8.4541 0.488281 8.1416C0.175833 7.82906 0 7.40483 0 6.96289C0.000117103 6.52113 0.175966 6.09759 0.488281 5.78516C0.800784 5.47265 1.22505 5.29694 1.66699 5.29688H1.70703C1.79971 5.29471 1.89039 5.26481 1.96582 5.21094C2.04128 5.15697 2.09882 5.0812 2.13086 4.99414L2.14258 4.96484C2.17989 4.8803 2.19129 4.78624 2.1748 4.69531C2.16245 4.62737 2.13474 4.56339 2.09473 4.50781L2.0498 4.45508L2.01855 4.42383V4.42285C1.864 4.26824 1.74094 4.08477 1.65723 3.88281C1.57339 3.68052 1.53027 3.46311 1.53027 3.24414C1.53033 3.02535 1.57347 2.80858 1.65723 2.60645C1.74102 2.4043 1.86379 2.22013 2.01855 2.06543C2.17324 1.9106 2.35741 1.78796 2.55957 1.7041C2.76183 1.62026 2.9793 1.57718 3.19824 1.57715C3.41702 1.57719 3.63381 1.62037 3.83594 1.7041C4.0381 1.78791 4.22224 1.91065 4.37695 2.06543L4.4082 2.09668L4.46094 2.1416C4.51638 2.18153 4.58067 2.2083 4.64844 2.2207C4.73922 2.23716 4.83353 2.22662 4.91797 2.18945L5.0166 2.15723C5.02071 2.15636 5.02517 2.15602 5.0293 2.15527C5.08624 2.12026 5.13559 2.07372 5.17285 2.01758C5.22233 1.94287 5.2493 1.8552 5.25 1.76562V1.66699C5.25 1.22502 5.4258 0.80083 5.73828 0.488281C6.05078 0.175778 6.47505 6.46899e-05 6.91699 0ZM6.91699 1C6.74027 1.00006 6.57028 1.07035 6.44531 1.19531C6.32036 1.32033 6.25 1.49024 6.25 1.66699V1.76758C6.24886 2.05275 6.16427 2.33156 6.00684 2.56934C5.84935 2.80708 5.6254 2.9941 5.36328 3.10645C5.32128 3.12437 5.27653 3.13372 5.23145 3.13965C4.9886 3.22802 4.72613 3.25135 4.4707 3.20508C4.18331 3.15292 3.91781 3.01575 3.70898 2.81152L3.66992 2.77246C3.60803 2.71053 3.534 2.66146 3.45312 2.62793C3.37236 2.59449 3.28565 2.57719 3.19824 2.57715C3.11071 2.57718 3.02324 2.59441 2.94238 2.62793C2.86171 2.66144 2.78832 2.71068 2.72656 2.77246H2.72559C2.66366 2.83435 2.61458 2.90838 2.58105 2.98926C2.54759 3.07003 2.53033 3.15671 2.53027 3.24414C2.53027 3.33172 2.54753 3.41909 2.58105 3.5C2.61452 3.5807 2.66384 3.65402 2.72559 3.71582V3.7168L2.76074 3.75098L2.76465 3.75488C2.96898 3.96377 3.10606 4.23006 3.1582 4.51758C3.2083 4.79431 3.17599 5.07856 3.06836 5.33789L3.06934 5.33887C2.96804 5.61424 2.7865 5.85371 2.54785 6.02441C2.30919 6.19506 2.02378 6.29001 1.73047 6.29688H1.66699C1.49027 6.29694 1.32028 6.36722 1.19531 6.49219C1.07053 6.61709 1.00012 6.78635 1 6.96289C1 7.13962 1.0704 7.30956 1.19531 7.43457C1.32028 7.55954 1.49027 7.62982 1.66699 7.62988H1.76758C2.05266 7.63102 2.33161 7.7157 2.56934 7.87305C2.80573 8.0296 2.99193 8.25156 3.10449 8.51172L3.14453 8.61328C3.22952 8.853 3.25068 9.11179 3.20508 9.36328C3.15288 9.65064 3.01576 9.91621 2.81152 10.125L2.80762 10.1289L2.77246 10.1631V10.1641C2.71069 10.2259 2.66142 10.2992 2.62793 10.3799C2.5944 10.4608 2.57715 10.5482 2.57715 10.6357C2.57719 10.7232 2.59445 10.8098 2.62793 10.8906C2.66146 10.9715 2.71053 11.0455 2.77246 11.1074L2.87402 11.1904C2.91016 11.2146 2.94891 11.2352 2.98926 11.252C3.06998 11.2854 3.15676 11.3026 3.24414 11.3027C3.33168 11.3027 3.41913 11.2854 3.5 11.252C3.58073 11.2185 3.65402 11.1692 3.71582 11.1074H3.7168L3.75098 11.0723L3.75488 11.0684C3.96372 10.8641 4.23014 10.727 4.51758 10.6748C4.79406 10.6248 5.07875 10.6563 5.33789 10.7637H5.33887C5.61425 10.865 5.8537 11.0475 6.02441 11.2861C6.19496 11.5247 6.29002 11.8093 6.29688 12.1025V12.167C6.29696 12.3436 6.36735 12.5128 6.49219 12.6377C6.61705 12.7626 6.78633 12.8328 6.96289 12.833C7.13964 12.833 7.30956 12.7626 7.43457 12.6377C7.55945 12.5128 7.6298 12.3436 7.62988 12.167V12.0654C7.63103 11.7803 7.71562 11.5014 7.87305 11.2637C8.02953 11.0274 8.25174 10.8421 8.51172 10.7295L8.61328 10.6885C8.85289 10.6035 9.1119 10.5824 9.36328 10.6279C9.61473 10.6736 9.84938 10.7845 10.0439 10.9482L10.125 11.0215L10.1289 11.0254L10.1631 11.0605H10.1641C10.2258 11.1224 10.2992 11.1715 10.3799 11.2051C10.4607 11.2386 10.5482 11.2558 10.6357 11.2559C10.7232 11.2558 10.8099 11.2385 10.8906 11.2051C10.9715 11.1716 11.0456 11.1225 11.1074 11.0605L11.1904 10.959C11.2146 10.9228 11.2352 10.8841 11.252 10.8438C11.2854 10.7629 11.3027 10.6764 11.3027 10.5889C11.3027 10.5013 11.2855 10.4139 11.252 10.333C11.2352 10.2926 11.2146 10.2539 11.1904 10.2178L11.1074 10.1172L11.0684 10.0781C10.8641 9.86929 10.727 9.60381 10.6748 9.31641C10.623 9.03073 10.6573 8.73571 10.7734 8.46973L10.8193 8.37305C10.9335 8.1526 11.1026 7.96393 11.3105 7.82617C11.5482 7.66881 11.8272 7.58419 12.1123 7.58301H12.167C12.3436 7.58292 12.5128 7.51257 12.6377 7.3877C12.7626 7.26275 12.8329 7.09369 12.833 6.91699C12.833 6.74018 12.7627 6.57034 12.6377 6.44531C12.5128 6.32054 12.3436 6.25009 12.167 6.25H12.0654C11.7803 6.2488 11.5014 6.16426 11.2637 6.00684C11.026 5.84936 10.8399 5.62534 10.7275 5.36328C10.7098 5.32176 10.6994 5.27795 10.6934 5.2334C10.6045 4.99009 10.5816 4.72671 10.6279 4.4707C10.68 4.18335 10.8174 3.91782 11.0215 3.70898L11.0605 3.66992C11.1225 3.60805 11.1715 3.53399 11.2051 3.45312C11.2386 3.37229 11.2558 3.28574 11.2559 3.19824C11.2559 3.11063 11.2386 3.02332 11.2051 2.94238C11.1715 2.86164 11.1224 2.78836 11.0605 2.72656V2.72559C10.9987 2.66369 10.9246 2.61457 10.8438 2.58105C10.763 2.54765 10.6763 2.53029 10.5889 2.53027C10.5013 2.53031 10.4139 2.54754 10.333 2.58105C10.2524 2.61457 10.1789 2.66383 10.1172 2.72559L10.0781 2.76465C9.8693 2.96886 9.60379 3.10605 9.31641 3.1582C9.02899 3.21027 8.73208 3.17553 8.46484 3.05762V3.05664C8.205 2.94404 7.98258 2.75864 7.82617 2.52246C7.66891 2.28477 7.58414 2.00572 7.58301 1.7207V1.66699C7.58301 1.49018 7.51272 1.32034 7.3877 1.19531C7.26278 1.07054 7.09355 1.00009 6.91699 1ZM6.91699 4.66602C8.15963 4.66602 9.16699 5.67337 9.16699 6.91602C9.16699 8.15866 8.15963 9.16602 6.91699 9.16602C5.67435 9.16602 4.66699 8.15866 4.66699 6.91602C4.66699 5.67337 5.67435 4.66602 6.91699 4.66602ZM6.91699 5.66602C6.22664 5.66602 5.66699 6.22566 5.66699 6.91602C5.66699 7.60637 6.22664 8.16602 6.91699 8.16602C7.60735 8.16602 8.16699 7.60637 8.16699 6.91602C8.16699 6.22566 7.60735 5.66602 6.91699 5.66602Z" fill="#181715"/>
</svg>
