<svg preserveAspectRatio="none" width="100%" height="100%" overflow="visible" style="display: block;" viewBox="0 0 17.5 21.4998" fill="none" xmlns="http://www.w3.org/2000/svg">
<path id="Union" d="M8.48633 0.0477531C8.65612 -0.0159177 8.84388 -0.0159177 9.01367 0.0477531L17.0137 3.04775C17.3062 3.15762 17.5 3.43739 17.5 3.7499V10.7499C17.5 14.0846 15.2889 16.7752 13.2441 18.5644C12.206 19.4727 11.171 20.1834 10.3975 20.6669C10.0099 20.9091 9.6859 21.0959 9.45703 21.2226C9.34268 21.2859 9.25167 21.3339 9.18848 21.3671C9.157 21.3836 9.13256 21.3973 9.11523 21.4062C9.1068 21.4105 9.09961 21.4134 9.09473 21.4159L9.08691 21.4198L9.08594 21.4208L8.75 20.7499L9.08496 21.4208C8.87404 21.5261 8.62596 21.5261 8.41504 21.4208L8.75 20.7499L8.41406 21.4208L8.41309 21.4198L8.40527 21.4159C8.40039 21.4134 8.3932 21.4105 8.38477 21.4062C8.36744 21.3973 8.343 21.3836 8.31152 21.3671C8.24833 21.3339 8.15732 21.2859 8.04297 21.2226C7.8141 21.0959 7.4901 20.9091 7.10254 20.6669C6.32896 20.1834 5.29397 19.4727 4.25586 18.5644C2.2111 16.7752 2.96147e-05 14.0846 0 10.7499V3.7499L0.00878906 3.63467C0.0498291 3.37019 0.230305 3.1439 0.486328 3.04775L8.48633 0.0477531ZM1.5 4.26943V10.7499C1.50003 13.415 3.28897 15.7247 5.24414 17.4354C6.20592 18.277 7.1711 18.9414 7.89746 19.3954C8.24846 19.6148 8.54237 19.783 8.75 19.8983C8.95763 19.783 9.25154 19.6148 9.60254 19.3954C10.3289 18.9414 11.2941 18.277 12.2559 17.4354C14.211 15.7247 16 13.415 16 10.7499V4.26943L8.75 1.55068L1.5 4.26943Z" fill="#181715"/>
</svg>
