<svg preserveAspectRatio="none" width="100%" height="100%" overflow="visible" style="display: block;" viewBox="0 0 17.1992 21.2001" fill="none" xmlns="http://www.w3.org/2000/svg">
<path id="Union" d="M8.38867 0.0382025C8.5245 -0.0127342 8.67472 -0.0127342 8.81055 0.0382025L16.8105 3.0382C17.0445 3.12614 17.1992 3.34978 17.1992 3.59973V10.5997C17.199 13.8672 15.0308 16.5196 12.9951 18.3009C11.9648 19.2024 10.9368 19.9093 10.168 20.3898C9.78307 20.6303 9.46118 20.816 9.23438 20.9415C9.1213 21.0041 9.03098 21.0514 8.96875 21.0841C8.93788 21.1003 8.91333 21.1136 8.89648 21.1222C8.88811 21.1265 8.88065 21.1296 8.87598 21.132C8.874 21.133 8.87237 21.1342 8.87109 21.1349L8.86914 21.1359H8.86816V21.1368C8.69934 21.2212 8.49988 21.2212 8.33105 21.1368V21.1359L8.32812 21.1349C8.32685 21.1342 8.32522 21.133 8.32324 21.132C8.31857 21.1296 8.31111 21.1265 8.30273 21.1222C8.28588 21.1136 8.26133 21.1003 8.23047 21.0841C8.16824 21.0514 8.07792 21.0041 7.96484 20.9415C7.73804 20.816 7.41615 20.6303 7.03125 20.3898C6.26246 19.9093 5.23444 19.2024 4.2041 18.3009C2.16846 16.5196 0.000191559 13.8672 0 10.5997V3.59973C0 3.34978 0.154749 3.12614 0.388672 3.0382L8.38867 0.0382025ZM1.19922 4.01477V10.5997C1.19941 13.3317 3.03107 15.68 4.99512 17.3986C5.96438 18.2466 6.937 18.9153 7.66797 19.3722C8.0327 19.6001 8.33632 19.7742 8.54688 19.8907C8.56499 19.9008 8.5829 19.9099 8.59961 19.9191C8.61632 19.9099 8.63423 19.9008 8.65234 19.8907C8.8629 19.7742 9.16652 19.6001 9.53125 19.3722C10.2622 18.9153 11.2348 18.2466 12.2041 17.3986C14.1681 15.68 15.9998 13.3317 16 10.5997V4.01477L8.59961 1.24035L1.19922 4.01477Z" fill="#181715"/>
</svg>
