<svg preserveAspectRatio="none" width="100%" height="100%" overflow="visible" style="display: block;" viewBox="0 0 17 20.9992" fill="none" xmlns="http://www.w3.org/2000/svg">
<path id="Union" d="M8.32422 0.0317755C8.43732 -0.0105918 8.56268 -0.0105918 8.67578 0.0317755L16.6758 3.03178C16.8706 3.10498 16.9998 3.29144 17 3.49955V10.4995C17 13.7226 14.8589 16.3494 12.8291 18.1255C11.8038 19.0227 10.7804 19.726 10.0146 20.2046C9.63146 20.4441 9.31139 20.6286 9.08594 20.7535C8.97328 20.8158 8.88393 20.8637 8.82227 20.896C8.79159 20.9121 8.76756 20.9246 8.75098 20.9331C8.74279 20.9373 8.736 20.9406 8.73145 20.9429C8.72946 20.9439 8.7278 20.9452 8.72656 20.9458H8.72461L8.72363 20.9468C8.61799 20.9996 8.49839 21.0123 8.38574 20.9859L8.27637 20.9468L8.27344 20.9458C8.2722 20.9452 8.27054 20.9439 8.26855 20.9429C8.264 20.9406 8.25721 20.9373 8.24902 20.9331C8.23244 20.9246 8.20841 20.9121 8.17773 20.896C8.11607 20.8637 8.02672 20.8158 7.91406 20.7535C7.68861 20.6286 7.36854 20.4441 6.98535 20.2046C6.21965 19.726 5.19624 19.0227 4.1709 18.1255C2.14112 16.3494 0 13.7226 0 10.4995V3.49955C0.000201238 3.29144 0.129398 3.10498 0.324219 3.03178L8.32422 0.0317755ZM1 3.84525V10.4995C1 13.2762 2.85907 15.6497 4.8291 17.3736C5.80346 18.2261 6.78044 18.8981 7.51465 19.357C7.88114 19.586 8.18645 19.7611 8.39844 19.8785C8.43489 19.8986 8.46921 19.9164 8.5 19.9331C8.53078 19.9164 8.56511 19.8986 8.60156 19.8785C8.81355 19.7611 9.11886 19.586 9.48535 19.357C10.2196 18.8981 11.1965 18.2261 12.1709 17.3736C14.1409 15.6497 16 13.2762 16 10.4995V3.84525L8.5 1.03275L1 3.84525Z" fill="#181715"/>
</svg>
