<svg preserveAspectRatio="none" width="100%" height="100%" overflow="visible" style="display: block;" viewBox="0 0 15 21" fill="none" xmlns="http://www.w3.org/2000/svg">
<path id="Union" d="M12.5 0C13.8807 0 15 1.11929 15 2.5V18.5C15 19.8807 13.8807 21 12.5 21H2.5C1.11929 21 0 19.8807 0 18.5V2.5C0 1.11929 1.11929 1.28851e-07 2.5 0H12.5ZM2.5 1C1.67157 1 1 1.67157 1 2.5V18.5C1 19.3284 1.67157 20 2.5 20H12.5C13.3284 20 14 19.3284 14 18.5V2.5C14 1.67157 13.3284 1 12.5 1H2.5ZM7.50977 16C7.78591 16 8.00977 16.2239 8.00977 16.5C8.00977 16.7761 7.78591 17 7.50977 17H7.5C7.22386 17 7 16.7761 7 16.5C7 16.2239 7.22386 16 7.5 16H7.50977Z" fill="#181715"/>
</svg>
