<svg preserveAspectRatio="none" width="100%" height="100%" overflow="visible" style="display: block;" viewBox="0 0 15.5 21.5" fill="none" xmlns="http://www.w3.org/2000/svg">
<path id="Union" d="M12.75 0C14.2688 0 15.5 1.23122 15.5 2.75V18.75C15.5 20.2688 14.2688 21.5 12.75 21.5H2.75C1.23122 21.5 0 20.2688 0 18.75V2.75C0 1.23122 1.23122 1.28851e-07 2.75 0H12.75ZM2.75 1.5C2.05964 1.5 1.5 2.05964 1.5 2.75V18.75C1.5 19.4404 2.05964 20 2.75 20H12.75C13.4404 20 14 19.4404 14 18.75V2.75C14 2.05964 13.4404 1.5 12.75 1.5H2.75ZM7.75977 16C8.17398 16 8.50977 16.3358 8.50977 16.75C8.50977 17.1642 8.17398 17.5 7.75977 17.5H7.75C7.33579 17.5 7 17.1642 7 16.75C7 16.3358 7.33579 16 7.75 16H7.75977Z" fill="#181715"/>
</svg>
