<svg preserveAspectRatio="none" width="100%" height="100%" overflow="visible" style="display: block;" viewBox="0 0 15.1992 21.1992" fill="none" xmlns="http://www.w3.org/2000/svg">
<path id="Union" d="M12.5996 0C14.0355 0 15.1992 1.16367 15.1992 2.59961V18.5996C15.1992 20.0355 14.0355 21.1992 12.5996 21.1992H2.59961C1.16367 21.1992 0 20.0355 0 18.5996V2.59961C0 1.16367 1.16367 1.2887e-07 2.59961 0H12.5996ZM2.59961 1.19922C1.82641 1.19922 1.19922 1.82641 1.19922 2.59961V18.5996C1.19922 19.3728 1.82641 20 2.59961 20H12.5996C13.3728 20 14 19.3728 14 18.5996V2.59961C14 1.82641 13.3728 1.19922 12.5996 1.19922H2.59961ZM7.60938 16C7.94075 16 8.20996 16.2682 8.20996 16.5996C8.20996 16.931 7.94075 17.1992 7.60938 17.1992H7.59961C7.26824 17.1992 7 16.931 7 16.5996C7 16.2682 7.26824 16 7.59961 16H7.60938Z" fill="#181715"/>
</svg>
