<svg preserveAspectRatio="none" width="100%" height="100%" overflow="visible" style="display: block;" viewBox="0 0 14.5332 14.5332" fill="none" xmlns="http://www.w3.org/2000/svg">
<path id="Union" d="M7.2666 0C11.2796 0.000176141 14.533 3.25359 14.5332 7.2666C14.533 11.2796 11.2796 14.533 7.2666 14.5332C3.25359 14.533 0.000176138 11.2796 0 7.2666C0.000175892 3.25359 3.25359 0.000175896 7.2666 0ZM7.2666 1.19922C3.91633 1.19939 1.19939 3.91633 1.19922 7.2666C1.19939 10.6169 3.91633 13.3328 7.2666 13.333C10.6169 13.3328 13.3328 10.6169 13.333 7.2666C13.3328 3.91633 10.6169 1.19939 7.2666 1.19922ZM9.53516 8.15039C9.74379 7.96526 10.061 7.94559 10.293 8.11914C10.5249 8.29308 10.5948 8.6032 10.4756 8.85547L10.4131 8.95996L10.4121 8.96094C10.4116 8.96159 10.4108 8.96303 10.4102 8.96387C10.4089 8.9655 10.407 8.96748 10.4053 8.96973C10.4018 8.97428 10.3971 8.98038 10.3916 8.9873C10.3805 9.00131 10.3657 9.02031 10.3467 9.04297C10.3085 9.08852 10.2534 9.14981 10.1836 9.22266C10.0444 9.36793 9.8406 9.56035 9.57715 9.75195C9.05261 10.1333 8.26478 10.5331 7.2666 10.5332C6.26825 10.5331 5.47962 10.1334 4.95508 9.75195C4.6918 9.56044 4.48779 9.36787 4.34863 9.22266C4.27922 9.1502 4.22465 9.08838 4.18652 9.04297C4.16755 9.02037 4.15168 9.00127 4.14062 8.9873C4.1352 8.98044 4.13043 8.97424 4.12695 8.96973L4.12109 8.96094L4.12012 8.95996C4.122 8.95826 4.1519 8.93539 4.59961 8.59961L4.11914 8.95996C3.92065 8.6949 3.97433 8.31788 4.23926 8.11914C4.5035 7.92096 4.87881 7.97441 5.07812 8.2373L5.10547 8.27148C5.12835 8.29874 5.16531 8.34087 5.21484 8.39258C5.31514 8.49723 5.46643 8.63961 5.66113 8.78125C6.05312 9.06627 6.5989 9.33292 7.2666 9.33301C7.93443 9.33292 8.48007 9.06633 8.87207 8.78125C9.06688 8.63955 9.21705 8.49728 9.31738 8.39258C9.36705 8.34075 9.4038 8.29883 9.42676 8.27148C9.4382 8.25785 9.44683 8.24767 9.45117 8.24219L9.4541 8.23828L9.45312 8.23926L9.53516 8.15039ZM5.27246 4.66699C5.60382 4.66701 5.87207 4.93524 5.87207 5.2666C5.87207 5.59796 5.60382 5.8662 5.27246 5.86621H5.2666C4.93523 5.86621 4.66699 5.59797 4.66699 5.2666C4.66699 4.93523 4.93523 4.66699 5.2666 4.66699H5.27246ZM9.27246 4.66699C9.60382 4.66701 9.87207 4.93524 9.87207 5.2666C9.87207 5.59796 9.60382 5.8662 9.27246 5.86621H9.2666C8.93523 5.86621 8.66699 5.59797 8.66699 5.2666C8.66699 4.93523 8.93523 4.66699 9.2666 4.66699H9.27246Z" fill="#181715"/>
</svg>
