<svg preserveAspectRatio="none" width="100%" height="100%" overflow="visible" style="display: block;" viewBox="0 0 12.667 12.667" fill="none" xmlns="http://www.w3.org/2000/svg">
<path id="Union" d="M6.33301 0C9.83055 0.000175927 12.6668 2.83546 12.667 6.33301C12.6668 9.83055 9.83055 12.6668 6.33301 12.667C2.83546 12.6668 0.00017593 9.83055 0 6.33301C0.00017613 2.83546 2.83546 0.000176127 6.33301 0ZM6.33301 1C3.38775 1.00018 1.00018 3.38775 1 6.33301C1.00018 9.27827 3.38775 11.6668 6.33301 11.667C9.27827 11.6668 11.6668 9.27827 11.667 6.33301C11.6668 3.38775 9.27827 1.00018 6.33301 1ZM8.2666 7.19922C8.43235 6.97874 8.74604 6.93413 8.9668 7.09961C9.1874 7.26537 9.232 7.57901 9.06641 7.7998L8.66699 7.5L9.06641 7.80078L9.06543 7.80176L9.06445 7.80371L9.04883 7.82324C9.03925 7.83533 9.02533 7.85138 9.00879 7.87109C8.97564 7.91059 8.92886 7.96499 8.86816 8.02832C8.74718 8.15456 8.56981 8.32075 8.34082 8.4873C7.88462 8.81909 7.19979 9.16691 6.33301 9.16699C5.46654 9.16691 4.78238 8.81898 4.32617 8.4873C4.0974 8.32092 3.91983 8.15453 3.79883 8.02832C3.7383 7.96516 3.69036 7.91056 3.65723 7.87109C3.64095 7.8517 3.62766 7.83524 3.61816 7.82324L3.60254 7.80371L3.60156 7.80176L3.59961 7.7998C3.4342 7.57891 3.47939 7.26522 3.7002 7.09961C3.92046 6.93472 4.23248 6.97907 4.39844 7.19824C4.39906 7.19902 4.4007 7.20105 4.40234 7.20312C4.4064 7.20819 4.41408 7.2169 4.42383 7.22852C4.44422 7.2528 4.47677 7.29029 4.52051 7.33594C4.60913 7.42838 4.74232 7.55381 4.91406 7.67871C5.2598 7.93007 5.74196 8.16691 6.33301 8.16699C6.92426 8.16691 7.40717 7.93017 7.75293 7.67871C7.92474 7.55373 8.05791 7.42836 8.14648 7.33594C8.19039 7.2901 8.22282 7.25276 8.24316 7.22852C8.25319 7.21656 8.26068 7.20812 8.26465 7.20312L8.2666 7.19922ZM4.58887 4.08301C4.865 4.08302 5.08887 4.30687 5.08887 4.58301C5.08887 4.85914 4.865 5.08299 4.58887 5.08301H4.58301C4.30687 5.08301 4.08301 4.85915 4.08301 4.58301C4.08301 4.30687 4.30687 4.08301 4.58301 4.08301H4.58887ZM8.08887 4.08301C8.365 4.08302 8.58887 4.30687 8.58887 4.58301C8.58887 4.85914 8.365 5.08299 8.08887 5.08301H8.08301C7.80687 5.08301 7.58301 4.85915 7.58301 4.58301C7.58301 4.30687 7.80687 4.08301 8.08301 4.08301H8.08887Z" fill="#181715"/>
</svg>
