<svg preserveAspectRatio="none" width="100%" height="100%" overflow="visible" style="display: block;" viewBox="0 0 18.167 18.167" fill="none" xmlns="http://www.w3.org/2000/svg">
<path id="Union" d="M9.08301 0C14.0993 0.000175944 18.1668 4.06668 18.167 9.08301C18.1668 14.0993 14.0993 18.1668 9.08301 18.167C4.06668 18.1668 0.000175948 14.0993 0 9.08301C0.000176135 4.06668 4.06668 0.000176131 9.08301 0ZM9.08301 1.5C4.89511 1.50018 1.50018 4.89511 1.5 9.08301C1.50018 13.2709 4.89511 16.6668 9.08301 16.667C13.2709 16.6668 16.6668 13.2709 16.667 9.08301C16.6668 4.89511 13.2709 1.50018 9.08301 1.5ZM11.8184 10.2979C12.0673 9.96841 12.5356 9.9025 12.8662 10.1504C13.1767 10.3835 13.2559 10.8112 13.0596 11.1367L13.0166 11.2002L13.0146 11.2021C13.0141 11.2029 13.0134 11.2041 13.0127 11.2051C13.0111 11.2071 13.009 11.2101 13.0068 11.2129C13.0025 11.2185 12.997 11.2259 12.9902 11.2344C12.9764 11.2519 12.9574 11.2753 12.9336 11.3037C12.8858 11.3606 12.8177 11.4382 12.7305 11.5293C12.5565 11.7108 12.3018 11.9501 11.9727 12.1895C11.317 12.6663 10.3312 13.1669 9.08301 13.167C7.83508 13.1669 6.85003 12.6662 6.19434 12.1895C5.86533 11.9502 5.61051 11.7108 5.43652 11.5293C5.34939 11.4384 5.28119 11.3606 5.2334 11.3037C5.20972 11.2755 5.19061 11.2519 5.17676 11.2344C5.17002 11.2259 5.16357 11.2185 5.15918 11.2129C5.1571 11.2102 5.15486 11.2071 5.15332 11.2051C5.15269 11.2042 5.15188 11.2029 5.15137 11.2021L5.15039 11.2012V11.2002C4.90194 10.8689 4.9687 10.399 5.2998 10.1504C5.63034 9.90253 6.09866 9.96866 6.34766 10.2979C6.34851 10.2987 6.35064 10.3003 6.35254 10.3027C6.35802 10.3097 6.36776 10.3231 6.38184 10.3398C6.41054 10.374 6.45737 10.4263 6.51953 10.4912C6.64492 10.622 6.83295 10.7996 7.07617 10.9766C7.56617 11.3328 8.24835 11.6669 9.08301 11.667C9.91783 11.6669 10.5998 11.3329 11.0898 10.9766C11.3334 10.7994 11.522 10.6221 11.6475 10.4912C11.7095 10.4264 11.7555 10.374 11.7842 10.3398C11.7985 10.3228 11.809 10.3096 11.8145 10.3027C11.8168 10.2998 11.8179 10.2976 11.8184 10.2969V10.2979ZM6.5918 5.83301C7.0058 5.83325 7.3418 6.16895 7.3418 6.58301C7.3418 6.99707 7.0058 7.33276 6.5918 7.33301H6.58301C6.16879 7.33301 5.83301 6.99722 5.83301 6.58301C5.83301 6.16879 6.16879 5.83301 6.58301 5.83301H6.5918ZM11.5918 5.83301C12.0058 5.83325 12.3418 6.16895 12.3418 6.58301C12.3418 6.99707 12.0058 7.33276 11.5918 7.33301H11.583C11.1688 7.33301 10.833 6.99722 10.833 6.58301C10.833 6.16879 11.1688 5.83301 11.583 5.83301H11.5918Z" fill="#181715"/>
</svg>
