<svg preserveAspectRatio="none" width="100%" height="100%" overflow="visible" style="display: block;" viewBox="0 0 18.1668 17.3499" fill="none" xmlns="http://www.w3.org/2000/svg">
<path id="Union" d="M9.08327 0C9.36865 0 9.62973 0.162113 9.75612 0.417969L12.1565 5.28125L17.5256 6.06641C17.8079 6.10777 18.0421 6.30579 18.1301 6.57715C18.2181 6.84855 18.145 7.14657 17.9407 7.3457L14.0559 11.1289L14.9729 16.4736C15.021 16.7549 14.905 17.0393 14.6741 17.207C14.4432 17.3744 14.1365 17.3964 13.884 17.2637L9.08327 14.7383L4.28249 17.2637C4.02988 17.3963 3.7233 17.3747 3.49245 17.207C3.26183 17.0393 3.14655 16.7547 3.19459 16.4736L4.11061 11.1289L0.226821 7.3457C0.0226203 7.14665 -0.0514227 6.84846 0.0363916 6.57715C0.124384 6.30577 0.359613 6.10781 0.64186 6.06641L6.01002 5.28125L8.41139 0.417969L8.46413 0.326172C8.60245 0.123916 8.8338 0.00023866 9.08327 0ZM7.18092 6.29883C7.07176 6.51965 6.86117 6.67324 6.61745 6.70898L2.36159 7.33008L5.44069 10.3291C5.61745 10.5013 5.69811 10.7499 5.65651 10.9932L4.92995 15.2285L8.73463 13.2275L8.81862 13.1904C9.01783 13.1151 9.24179 13.1272 9.43288 13.2275L13.2366 15.2285L12.511 10.9932C12.4694 10.75 12.5501 10.5013 12.7268 10.3291L15.8049 7.33008L11.5501 6.70898C11.3062 6.6732 11.0947 6.51984 10.9856 6.29883L9.08327 2.44434L7.18092 6.29883Z" fill="#181715"/>
</svg>
