<svg preserveAspectRatio="none" width="100%" height="100%" overflow="visible" style="display: block;" viewBox="0 0 12.6666 12.0948" fill="none" xmlns="http://www.w3.org/2000/svg">
<path id="Union" d="M6.33287 0C6.52285 0.000145639 6.69684 0.108055 6.78111 0.27832L8.46666 3.69434L12.2391 4.24609C12.4271 4.27382 12.5838 4.40612 12.6424 4.58691C12.7008 4.7676 12.6513 4.96598 12.5155 5.09863L9.78697 7.75488L10.4305 11.5107C10.4626 11.6982 10.386 11.8882 10.2323 12C10.0784 12.1117 9.87425 12.1254 9.70591 12.0371L6.33287 10.2637L2.9608 12.0371C2.79254 12.1256 2.58835 12.1115 2.43443 12C2.28052 11.8882 2.20316 11.6982 2.23521 11.5107L2.87877 7.75586L0.151226 5.09863C0.015035 4.96593 -0.0342752 4.76782 0.0242731 4.58691C0.0829903 4.40597 0.239353 4.27361 0.427593 4.24609L4.19712 3.69531L5.88462 0.27832L5.92076 0.217773C6.01302 0.0830183 6.16658 0.000107778 6.33287 0ZM4.97935 4.37305C4.90669 4.52025 4.76574 4.62251 4.60337 4.64648L1.5731 5.08887L3.76548 7.22363C3.88316 7.33845 3.93677 7.50396 3.90904 7.66602L3.39146 10.6807L6.10044 9.25684L6.21373 9.21387C6.33101 9.18509 6.45696 9.19935 6.56627 9.25684L9.2733 10.6797L8.75669 7.66602C8.72895 7.50382 8.78334 7.33845 8.90123 7.22363L11.0917 5.08887L8.06334 4.64648C7.90075 4.62271 7.76015 4.52034 7.68736 4.37305L6.33287 1.62891L4.97935 4.37305Z" fill="#181715"/>
</svg>
