<svg preserveAspectRatio="none" width="100%" height="100%" overflow="visible" style="display: block;" viewBox="0 0 14.5331 13.8793" fill="none" xmlns="http://www.w3.org/2000/svg">
<path id="Union" d="M7.26663 0C7.49483 0.000123338 7.70366 0.129363 7.80471 0.333984L9.72464 4.22461L14.0196 4.85254C14.2453 4.88554 14.4334 5.04377 14.5039 5.26074C14.5744 5.47793 14.5151 5.71666 14.3516 5.87598L11.2442 8.90234L11.9776 13.1777C12.0161 13.4027 11.9238 13.6304 11.7393 13.7646C11.5546 13.8987 11.3095 13.9167 11.1074 13.8105L7.26663 11.79L3.42581 13.8105C3.2237 13.9167 2.97869 13.8988 2.79397 13.7646C2.60932 13.6304 2.51614 13.4028 2.55471 13.1777L3.28811 8.90234L0.18069 5.87598C0.017409 5.71668 -0.0410125 5.47777 0.0293225 5.26074C0.0998476 5.04395 0.287156 4.88566 0.512721 4.85254L4.80667 4.22461L6.72854 0.333984L6.77151 0.260742C6.88224 0.0989923 7.06703 9.08484e-05 7.26663 0ZM5.74417 5.03809C5.65683 5.21494 5.48817 5.33768 5.29299 5.36621L1.8887 5.86328L4.35159 8.2627C4.49301 8.40044 4.55767 8.59936 4.52444 8.79395L3.94241 12.1826L6.98733 10.582L7.05374 10.5518C7.21323 10.4913 7.3929 10.5016 7.54592 10.582L10.5889 12.1826L10.0078 8.79395C9.97466 8.59946 10.0394 8.40041 10.1807 8.2627L12.6436 5.86426L9.23928 5.36621C9.04431 5.33752 8.87535 5.21482 8.78811 5.03809L7.26565 1.95508L5.74417 5.03809Z" fill="#181715"/>
</svg>
