<svg preserveAspectRatio="none" width="100%" height="100%" overflow="visible" style="display: block;" viewBox="0 0 13.1992 14.5332" fill="none" xmlns="http://www.w3.org/2000/svg">
<path id="Union" d="M7.93262 0C8.44523 0 8.93726 0.203038 9.2998 0.56543C9.6623 0.927923 9.86612 1.41998 9.86621 1.93262V2.66602H12.5996C12.931 2.66602 13.1992 2.93425 13.1992 3.26562C13.1992 3.597 12.931 3.86523 12.5996 3.86523H11.8662V12.5996C11.8662 13.1124 11.6624 13.6042 11.2998 13.9668C10.9372 14.3293 10.4453 14.5332 9.93262 14.5332H3.26562C2.75308 14.5331 2.26087 14.3292 1.89844 13.9668C1.53605 13.6043 1.33301 13.1122 1.33301 12.5996V3.86523H0.599609C0.268239 3.86523 0 3.597 0 3.26562C0 2.93425 0.268239 2.66602 0.599609 2.66602H3.33301V1.93262C3.33309 1.42004 3.53602 0.927911 3.89844 0.56543C4.26087 0.202994 4.75308 0.000150743 5.26562 0H7.93262ZM2.53223 12.5996C2.53223 12.794 2.60972 12.9807 2.74707 13.1182C2.88446 13.2556 3.07134 13.3329 3.26562 13.333H9.93262C10.1271 13.333 10.3137 13.2556 10.4512 13.1182C10.5887 12.9806 10.666 12.7941 10.666 12.5996V3.86621H2.53223V12.5996ZM5.2666 6C5.59786 6.00013 5.86621 6.26832 5.86621 6.59961V10.5996C5.86621 10.9309 5.59786 11.1991 5.2666 11.1992C4.93523 11.1992 4.66699 10.931 4.66699 10.5996V6.59961C4.66699 6.26824 4.93523 6 5.2666 6ZM7.93262 6C8.26399 6 8.53223 6.26824 8.53223 6.59961V10.5996C8.53223 10.931 8.26399 11.1992 7.93262 11.1992C7.60136 11.1991 7.33301 10.9309 7.33301 10.5996V6.59961C7.33301 6.26832 7.60136 6.00013 7.93262 6ZM5.26562 1.19922C5.07134 1.19937 4.88446 1.27667 4.74707 1.41406C4.6097 1.5515 4.53231 1.7383 4.53223 1.93262V2.66602H8.66602V1.93262C8.66593 1.73824 8.58862 1.55151 8.45117 1.41406C8.31367 1.27671 8.12697 1.19922 7.93262 1.19922H5.26562Z" fill="#181715"/>
</svg>
