<svg preserveAspectRatio="none" width="100%" height="100%" overflow="visible" style="display: block;" viewBox="0 0 11.5 12.667" fill="none" xmlns="http://www.w3.org/2000/svg">
<path id="Union" d="M6.91699 0C7.35893 6.46899e-05 7.7832 0.175778 8.0957 0.488281C8.40809 0.800815 8.58398 1.2251 8.58398 1.66699V2.33301H9.83398C9.83725 2.33301 9.8405 2.33392 9.84375 2.33398H11C11.2761 2.33398 11.5 2.55784 11.5 2.83398C11.5 3.11013 11.2761 3.33398 11 3.33398H10.334V11C10.334 11.442 10.1582 11.8662 9.8457 12.1787C9.5332 12.4912 9.10893 12.6669 8.66699 12.667H2.83398C2.39209 12.667 1.96781 12.4911 1.65527 12.1787C1.34271 11.8662 1.16699 11.442 1.16699 11V3.33398H0.5C0.223858 3.33398 0 3.11013 0 2.83398C0 2.55784 0.223858 2.33398 0.5 2.33398H1.65723C1.6604 2.33392 1.66381 2.33301 1.66699 2.33301H2.91699V1.66699C2.91699 1.22496 3.09271 0.800842 3.40527 0.488281C3.71782 0.175797 4.14201 0 4.58398 0H6.91699ZM2.16699 11C2.16699 11.1768 2.23728 11.3467 2.3623 11.4717C2.4873 11.5965 2.65731 11.667 2.83398 11.667H8.66699C8.84371 11.6669 9.0137 11.5966 9.13867 11.4717C9.26362 11.3467 9.33398 11.1768 9.33398 11V3.33398H2.16699V11ZM4.58301 5.25C4.85915 5.25 5.08301 5.47386 5.08301 5.75V9.25C5.08301 9.52614 4.85915 9.75 4.58301 9.75C4.30698 9.74987 4.08301 9.52606 4.08301 9.25V5.75C4.08301 5.47394 4.30698 5.25013 4.58301 5.25ZM6.91699 5.25C7.19302 5.25013 7.41699 5.47394 7.41699 5.75V9.25C7.41699 9.52606 7.19302 9.74987 6.91699 9.75C6.64085 9.75 6.41699 9.52614 6.41699 9.25V5.75C6.41699 5.47386 6.64085 5.25 6.91699 5.25ZM4.58398 1C4.40723 1 4.23732 1.07036 4.1123 1.19531C3.98728 1.32034 3.91699 1.49018 3.91699 1.66699V2.33301H7.58398V1.66699C7.58398 1.49032 7.51352 1.32031 7.38867 1.19531C7.26371 1.07035 7.09372 1.00006 6.91699 1H4.58398Z" fill="#181715"/>
</svg>
