<svg preserveAspectRatio="none" width="100%" height="100%" overflow="visible" style="display: block;" viewBox="0 0 16.5 18.167" fill="none" xmlns="http://www.w3.org/2000/svg">
<path id="Union" d="M9.91699 0C10.5578 6.46939e-05 11.1728 0.254853 11.626 0.708008C12.079 1.16119 12.334 1.77619 12.334 2.41699V3.33301H14.084C14.0905 3.33301 14.097 3.33381 14.1035 3.33398H15.75C16.1642 3.33398 16.5 3.66977 16.5 4.08398C16.5 4.4982 16.1642 4.83398 15.75 4.83398H14.834V15.75C14.834 16.3909 14.5791 17.0058 14.126 17.459C13.6728 17.9121 13.0578 18.1669 12.417 18.167H4.08398C3.44318 18.167 2.82819 17.912 2.375 17.459C1.92179 17.0058 1.66699 16.3909 1.66699 15.75V4.83398H0.75C0.335786 4.83398 0 4.4982 0 4.08398C0 3.66977 0.335786 3.33398 0.75 3.33398H2.39746C2.40388 3.33382 2.41054 3.33301 2.41699 3.33301H4.16699V2.41699C4.16699 1.77605 4.42179 1.16122 4.875 0.708008C5.3282 0.254871 5.9431 0 6.58398 0H9.91699ZM3.16699 15.75C3.16699 15.9931 3.26364 16.2265 3.43555 16.3984C3.60743 16.5702 3.841 16.667 4.08398 16.667H12.417C12.66 16.6669 12.8936 16.5703 13.0654 16.3984C13.2373 16.2265 13.334 15.9931 13.334 15.75V4.83398H3.16699V15.75ZM6.58301 7.5C6.99722 7.5 7.33301 7.83579 7.33301 8.25V13.25C7.33301 13.6642 6.99722 14 6.58301 14C6.16891 13.9999 5.83301 13.6641 5.83301 13.25V8.25C5.83301 7.83587 6.16891 7.50013 6.58301 7.5ZM9.91699 7.5C10.3311 7.50013 10.667 7.83587 10.667 8.25V13.25C10.667 13.6641 10.3311 13.9999 9.91699 14C9.50278 14 9.16699 13.6642 9.16699 13.25V8.25C9.16699 7.83579 9.50278 7.5 9.91699 7.5ZM6.58398 1.5C6.34093 1.5 6.10744 1.59672 5.93555 1.76855C5.76364 1.94046 5.66699 2.17388 5.66699 2.41699V3.33301H10.834V2.41699C10.834 2.17401 10.7372 1.94044 10.5654 1.76855C10.3936 1.5967 10.16 1.50006 9.91699 1.5H6.58398Z" fill="#181715"/>
</svg>
