<svg preserveAspectRatio="none" width="100%" height="100%" overflow="visible" style="display: block;" viewBox="0 0 19 19" fill="none" xmlns="http://www.w3.org/2000/svg">
<path id="Union" d="M18.5 12C18.7761 12 19 12.2239 19 12.5V16.5C19 17.163 18.7364 17.7987 18.2676 18.2676C17.7987 18.7364 17.163 19 16.5 19H2.5C1.83696 19 1.20126 18.7364 0.732422 18.2676C0.263581 17.7987 0 17.163 0 16.5V12.5C0 12.2239 0.223858 12 0.5 12C0.776142 12 1 12.2239 1 12.5V16.5L1.00781 16.6484C1.04195 16.9917 1.19337 17.3145 1.43945 17.5605C1.72076 17.8419 2.10218 18 2.5 18H16.5C16.8978 18 17.2792 17.8419 17.5605 17.5605C17.8419 17.2792 18 16.8978 18 16.5V12.5C18 12.2239 18.2239 12 18.5 12ZM9.51562 0.000976562C9.53625 0.00164306 9.55672 0.00363359 9.57715 0.00683594C9.5907 0.00893865 9.60402 0.0114804 9.61719 0.0146484C9.63539 0.0190448 9.65318 0.0247887 9.6709 0.03125C9.68031 0.0346807 9.69008 0.0370457 9.69922 0.0410156C9.70309 0.0426981 9.7071 0.0441136 9.71094 0.0458984L9.7793 0.0849609C9.7814 0.0863768 9.78308 0.088397 9.78516 0.0898438C9.80909 0.106533 9.83217 0.12514 9.85352 0.146484L14.8535 5.14648C15.0488 5.34175 15.0488 5.65825 14.8535 5.85352C14.6583 6.04878 14.3417 6.04878 14.1465 5.85352L10 1.70703V12.5C10 12.7761 9.77614 13 9.5 13C9.22386 13 9 12.7761 9 12.5V1.70703L4.85352 5.85352C4.65825 6.04878 4.34175 6.04878 4.14648 5.85352C3.95122 5.65825 3.95122 5.34175 4.14648 5.14648L9.14648 0.146484L9.22461 0.0820312C9.24996 0.0652881 9.27633 0.0506904 9.30371 0.0390625C9.30748 0.0374544 9.31161 0.0366736 9.31543 0.0351562C9.34061 0.025194 9.36638 0.0174276 9.39258 0.0117188C9.40092 0.00989272 9.40948 0.00921665 9.41797 0.0078125C9.44067 0.0040749 9.46338 0.00157358 9.48633 0.000976562C9.49088 0.000854238 9.49542 0 9.5 0C9.50524 0 9.51043 0.000816823 9.51562 0.000976562Z" fill="#181715"/>
</svg>
