<svg preserveAspectRatio="none" width="100%" height="100%" overflow="visible" style="display: block;" viewBox="0 0 19.1992 19.1992" fill="none" xmlns="http://www.w3.org/2000/svg">
<path id="Union" d="M18.5996 12C18.931 12 19.1992 12.2682 19.1992 12.5996V16.5996C19.1992 17.2892 18.9261 17.9509 18.4385 18.4385C17.9509 18.9261 17.2892 19.1992 16.5996 19.1992H2.59961C1.91005 19.1992 1.24834 18.9261 0.760742 18.4385C0.273148 17.9509 0 17.2892 0 16.5996V12.5996C0 12.2682 0.268239 12 0.599609 12C0.93098 12 1.19922 12.2682 1.19922 12.5996V16.5996L1.20605 16.7383C1.23793 17.0587 1.3797 17.3602 1.60938 17.5898C1.87193 17.8524 2.22831 18 2.59961 18H16.5996C16.9709 18 17.3273 17.8524 17.5898 17.5898C17.8524 17.3273 18 16.9709 18 16.5996V12.5996C18 12.2682 18.2682 12 18.5996 12ZM9.62207 0.00195312C9.64464 0.00281377 9.66707 0.00441189 9.68945 0.0078125C9.70634 0.0103496 9.72287 0.0136662 9.73926 0.0175781C9.75848 0.0221922 9.77711 0.0286178 9.7959 0.0351562C9.81206 0.0407689 9.82825 0.0458121 9.84375 0.0527344C9.86338 0.0615139 9.8816 0.0729893 9.90039 0.0839844C9.91279 0.0912265 9.92569 0.0973828 9.9375 0.105469C9.96757 0.12611 9.99671 0.149049 10.0234 0.175781L15.0234 5.17578C15.2578 5.4101 15.2578 5.78912 15.0234 6.02344C14.7891 6.25775 14.4101 6.25775 14.1758 6.02344L10.1992 2.04688V12.5996C10.1992 12.931 9.93098 13.1992 9.59961 13.1992C9.26824 13.1992 9 12.931 9 12.5996V2.04688L5.02344 6.02344C4.78912 6.25775 4.4101 6.25775 4.17578 6.02344C3.94147 5.78912 3.94147 5.4101 4.17578 5.17578L9.17578 0.175781L9.26953 0.0986328C9.29895 0.0792042 9.32965 0.0625222 9.36133 0.0488281C9.36294 0.0481326 9.3646 0.0475568 9.36621 0.046875L9.45703 0.0166016C9.46087 0.0156668 9.46489 0.0155062 9.46875 0.0146484C9.48 0.0121474 9.49145 0.0106494 9.50293 0.00878906C9.52983 0.00442156 9.55681 0.00166339 9.58398 0.000976562C9.58918 0.000843684 9.59438 0 9.59961 0C9.60715 0 9.6146 0.00167783 9.62207 0.00195312Z" fill="#181715"/>
</svg>
