<svg preserveAspectRatio="none" width="100%" height="100%" overflow="visible" style="display: block;" viewBox="0 0 19.5 19.5" fill="none" xmlns="http://www.w3.org/2000/svg">
<path id="Union" d="M18.75 12C19.1642 12 19.5 12.3358 19.5 12.75V16.75C19.5 17.4793 19.2101 18.1786 18.6943 18.6943C18.1786 19.2101 17.4793 19.5 16.75 19.5H2.75C2.02065 19.5 1.32139 19.2101 0.805664 18.6943C0.289939 18.1786 0 17.4793 0 16.75V12.75C0 12.3358 0.335786 12 0.75 12C1.16421 12 1.5 12.3358 1.5 12.75V16.75L1.50586 16.874C1.53436 17.16 1.6612 17.4288 1.86621 17.6338C2.10063 17.8682 2.41848 18 2.75 18H16.75C17.0815 18 17.3994 17.8682 17.6338 17.6338C17.8682 17.3994 18 17.0815 18 16.75V12.75C18 12.3358 18.3358 12 18.75 12ZM9.77539 0.000976562C9.78191 0.00120023 9.78841 0.00156039 9.79492 0.00195312C9.83392 0.00425862 9.87201 0.00953837 9.90918 0.0175781C9.94246 0.0247953 9.9746 0.03607 10.0068 0.0478516C10.0193 0.0524193 10.0328 0.0543679 10.0449 0.0595703C10.064 0.0677235 10.0811 0.0800363 10.0996 0.0898438C10.1234 0.102476 10.1477 0.113872 10.1699 0.128906C10.2088 0.155236 10.2459 0.185323 10.2803 0.219727L15.2803 5.21973C15.5732 5.51262 15.5732 5.98738 15.2803 6.28027C14.9874 6.57317 14.5126 6.57317 14.2197 6.28027L10.5 2.56055V12.75C10.5 13.1642 10.1642 13.5 9.75 13.5C9.33579 13.5 9 13.1642 9 12.75V2.56055L5.28027 6.28027C4.98738 6.57317 4.51262 6.57317 4.21973 6.28027C3.92683 5.98738 3.92683 5.51262 4.21973 5.21973L9.21973 0.219727L9.27637 0.167969C9.28656 0.159651 9.29807 0.153208 9.30859 0.145508C9.32413 0.134143 9.34003 0.123447 9.35645 0.113281C9.38034 0.0984885 9.40462 0.0850964 9.42969 0.0732422C9.44786 0.0646247 9.46641 0.056968 9.48535 0.0498047C9.51293 0.0394156 9.54094 0.0314387 9.56934 0.0244141C9.5894 0.0194355 9.60922 0.0130926 9.62988 0.00976562C9.64094 0.00798814 9.65198 0.00616433 9.66309 0.00488281C9.6916 0.00159306 9.72061 0 9.75 0C9.7585 0 9.76696 0.000695755 9.77539 0.000976562Z" fill="#181715"/>
</svg>
