<svg preserveAspectRatio="none" width="100%" height="100%" overflow="visible" style="display: block;" viewBox="0 0 11.4999 11.4999" fill="none" xmlns="http://www.w3.org/2000/svg">
<path id="Union" d="M10.2197 0.21967C10.5126 -0.0732232 10.9873 -0.0732233 11.2802 0.21967C11.5731 0.512568 11.5731 0.987342 11.2802 1.28022L6.81049 5.74994L11.2802 10.2197C11.5731 10.5126 11.5731 10.9873 11.2802 11.2802C10.9873 11.5731 10.5126 11.5731 10.2197 11.2802L5.74994 6.81049L1.28022 11.2802C0.987342 11.5731 0.512568 11.5731 0.21967 11.2802C-0.0732233 10.9873 -0.0732232 10.5126 0.21967 10.2197L4.6894 5.74994L0.21967 1.28022C-0.0732233 0.987324 -0.0732233 0.512563 0.21967 0.21967C0.512563 -0.0732233 0.987324 -0.0732233 1.28022 0.21967L5.74994 4.6894L10.2197 0.21967Z" fill="#181715"/>
</svg>
