<svg preserveAspectRatio="none" width="100%" height="100%" overflow="visible" style="display: block;" viewBox="0 0 9.49986 9.49986" fill="none" xmlns="http://www.w3.org/2000/svg">
<path id="Union" d="M8.21967 0.21967C8.51256 -0.0732233 8.98732 -0.0732232 9.28022 0.21967C9.57305 0.512568 9.57309 0.987342 9.28022 1.28022L5.70404 4.85639L9.17377 8.32612C9.40803 8.56043 9.40807 8.93948 9.17377 9.17377C8.93948 9.40807 8.56043 9.40803 8.32612 9.17377L4.85639 5.70404L1.28022 9.28022C0.987342 9.57309 0.512568 9.57305 0.21967 9.28022C-0.0732232 8.98732 -0.0732233 8.51256 0.21967 8.21967L3.79584 4.6435L0.326115 1.17377C0.0918006 0.939457 0.0918006 0.56043 0.326115 0.326115C0.56043 0.0918006 0.939457 0.0918006 1.17377 0.326115L4.6435 3.79584L8.21967 0.21967Z" fill="#181715"/>
</svg>
