<svg preserveAspectRatio="none" width="100%" height="100%" overflow="visible" style="display: block;" viewBox="0 0 7.99991 7.99991" fill="none" xmlns="http://www.w3.org/2000/svg">
<path id="Union" d="M7.14645 0.146447C7.34171 -0.0488154 7.65822 -0.0488155 7.85348 0.146447C8.0487 0.341712 8.04873 0.658228 7.85348 0.853478L4.70699 3.99996L7.85348 7.14645C8.0487 7.34171 8.04873 7.65823 7.85348 7.85348C7.65823 8.04873 7.34171 8.0487 7.14645 7.85348L3.99996 4.70699L0.853478 7.85348C0.658228 8.04873 0.341712 8.0487 0.146447 7.85348C-0.0488155 7.65822 -0.0488154 7.34171 0.146447 7.14645L3.29293 3.99996L0.146447 0.853478C-0.0488155 0.658216 -0.0488155 0.341709 0.146447 0.146447C0.341709 -0.0488155 0.658216 -0.0488155 0.853478 0.146447L3.99996 3.29293L7.14645 0.146447Z" fill="#181715"/>
</svg>
