<svg preserveAspectRatio="none" width="100%" height="100%" overflow="visible" style="display: block;" viewBox="0 0 40 40" fill="none" xmlns="http://www.w3.org/2000/svg">
<g id="typcn:code">
<path id="Vector" d="M11.8977 29.5719C10.8149 29.5717 9.77662 29.1276 9.0111 28.3372L0.000139509 19.0366L9.0111 9.73602C9.38774 9.33353 9.83826 9.01249 10.3364 8.79163C10.8345 8.57077 11.3703 8.45452 11.9124 8.44966C12.4545 8.44479 12.9922 8.55142 13.4939 8.76331C13.9957 8.9752 14.4516 9.28811 14.8349 9.68379C15.2183 10.0795 15.5215 10.55 15.7267 11.0679C15.932 11.5858 16.0353 12.1407 16.0306 12.7003C16.0259 13.2598 15.9133 13.8128 15.6993 14.3269C15.4853 14.8411 15.1743 15.3061 14.7843 15.6948L11.5486 19.0366L14.7843 22.3784C15.3552 22.9678 15.7439 23.7186 15.9013 24.5359C16.0588 25.3533 15.978 26.2004 15.669 26.9704C15.36 27.7403 14.8369 28.3984 14.1656 28.8615C13.4943 29.3245 12.7051 29.5718 11.8977 29.5719ZM27.5311 29.5719C26.7237 29.5718 25.9345 29.3245 25.2633 28.8615C24.592 28.3984 24.0688 27.7403 23.7599 26.9704C23.4509 26.2004 23.37 25.3533 23.5275 24.5359C23.685 23.7186 24.0737 22.9678 24.6445 22.3784L27.8802 19.0366L24.6445 15.6948C24.2546 15.3061 23.9435 14.8411 23.7295 14.3269C23.5156 13.8128 23.4029 13.2598 23.3982 12.7003C23.3935 12.1407 23.4968 11.5858 23.7021 11.0679C23.9074 10.55 24.2106 10.0795 24.5939 9.68379C24.9773 9.28811 25.4331 8.9752 25.9349 8.76331C26.4367 8.55142 26.9743 8.44479 27.5164 8.44966C28.0586 8.45452 28.5943 8.57077 29.0925 8.79163C29.5906 9.01249 30.0411 9.33353 30.4177 9.73602L39.4287 19.0366L30.4177 28.3372C29.6522 29.1276 28.6139 29.5717 27.5311 29.5719Z" fill="url(#paint0_linear_0_272)"/>
<path id="Vector 13" d="M14.2028 11.1283C13.1884 9.81799 11.159 9.81703 10.145 11.1269" stroke="white" stroke-opacity="0.4" stroke-width="1.5" stroke-linecap="round"/>
<path id="Vector 14" d="M29.9276 11.1283C28.9131 9.81799 26.8837 9.81703 25.8698 11.1269" stroke="white" stroke-opacity="0.4" stroke-width="1.5" stroke-linecap="round"/>
</g>
<defs>
<linearGradient id="paint0_linear_0_272" x1="19.7144" y1="8.4495" x2="19.7144" y2="29.5719" gradientUnits="userSpaceOnUse">
<stop stop-color="#C4C2C0"/>
<stop offset="1" stop-color="#81807E"/>
</linearGradient>
</defs>
</svg>
