<svg preserveAspectRatio="none" width="100%" height="100%" overflow="visible" style="display: block;" viewBox="0 0 40 40" fill="none" xmlns="http://www.w3.org/2000/svg">
<g id="fa6-solid:feather">
<path id="Vector" d="M21.3666 15.6424L4.68469 32.5036C4.07096 33.1242 4.07096 34.1277 4.68469 34.7416C5.29843 35.3556 6.29086 35.3622 6.89807 34.7416L10.6197 30.9786H15.0595C18.3045 30.9786 21.4515 30.0279 24.135 28.2718C24.8597 27.7964 24.4941 26.7533 23.6257 26.7533C23.2927 26.7533 23.025 26.4827 23.025 26.146C23.025 25.8753 23.2013 25.6442 23.4494 25.565L28.738 23.9607C28.9012 23.9079 29.0514 23.8221 29.1755 23.6967L30.638 22.2178C31.2974 21.5511 30.8273 20.4155 29.9002 20.4155H27.7978C27.4648 20.4155 27.1971 20.1449 27.1971 19.8082C27.1971 19.5375 27.3734 19.3064 27.6215 19.2272L34.9342 17.009C35.1953 16.9297 35.4173 16.7515 35.5414 16.5006C36.2465 15.1142 36.6121 13.5628 36.6121 11.9717C36.6121 9.26493 35.5479 6.67039 33.6545 4.75584L33.2953 4.39274C31.4084 2.48479 28.8425 1.40868 26.1655 1.40868C23.4886 1.40868 20.9226 2.48479 19.0292 4.39934L12.2585 11.2455C9.1245 14.4144 7.36164 18.7122 7.36164 23.1949V26.8458L19.7409 14.3352C20.1457 13.9259 20.8116 13.9259 21.2165 14.3352C21.569 14.6917 21.6147 15.233 21.3601 15.6424H21.3666Z" fill="#557487"/>
<path id="Vector_2" d="M20.6625 15.6424L3.98061 32.5036C3.36687 33.1242 3.36687 34.1277 3.98061 34.7416C4.59435 35.3556 5.58678 35.3622 6.19399 34.7416L9.91559 30.9786H14.3554C17.6004 30.9786 20.7474 30.0279 23.4309 28.2718C24.1556 27.7964 23.79 26.7533 22.9216 26.7533C22.5886 26.7533 22.3209 26.4827 22.3209 26.146C22.3209 25.8753 22.4972 25.6442 22.7453 25.565L28.0339 23.9607C28.1972 23.9079 28.3473 23.8221 28.4714 23.6967L29.9339 22.2178C30.5934 21.5511 30.1233 20.4155 29.1961 20.4155H27.0937C26.7608 20.4155 26.4931 20.1449 26.4931 19.8082C26.4931 19.5375 26.6693 19.3064 26.9174 19.2272L34.2301 17.009C34.4912 16.9297 34.7132 16.7515 34.8373 16.5006C35.5424 15.1142 35.9081 13.5628 35.9081 11.9717C35.9081 9.26493 34.8438 6.67039 32.9504 4.75584L32.5913 4.39274C30.7043 2.48479 28.1384 1.40868 25.4615 1.40868C22.7845 1.40868 20.2186 2.48479 18.3251 4.39934L11.5544 11.2455C8.42042 14.4144 6.65756 18.7122 6.65756 23.1949V26.8458L19.0368 14.3352C19.4416 13.9259 20.1076 13.9259 20.5124 14.3352C20.8649 14.6917 20.9106 15.233 20.656 15.6424H20.6625Z" fill="url(#paint0_linear_0_279)"/>
<path id="Vector 12" d="M22.0569 3.93983C22.0569 3.93983 25.8985 2.71806 28.7621 4.1444" stroke="white" stroke-opacity="0.4" stroke-width="2.18254" stroke-linecap="round"/>
</g>
<defs>
<linearGradient id="paint0_linear_0_279" x1="19.7142" y1="1.40868" x2="19.7142" y2="35.2046" gradientUnits="userSpaceOnUse">
<stop stop-color="#D0DBE1"/>
<stop offset="1" stop-color="#557487"/>
</linearGradient>
</defs>
</svg>
