<svg preserveAspectRatio="none" width="100%" height="100%" overflow="visible" style="display: block;" viewBox="0 0 40 40" fill="none" xmlns="http://www.w3.org/2000/svg">
<g id="wpf:books" clip-path="url(#clip0_0_266)">
<path id="Vector" d="M15.1348 -0.53424C14.9086 -0.500612 14.6926 -0.417628 14.5022 -0.291177C14.5022 -0.291177 12.5312 0.949066 10.4122 2.29059C8.29316 3.63055 5.93577 5.10762 5.39667 5.40678L5.29851 5.45352C3.34154 6.66104 2.93487 8.63359 2.86476 9.73984C2.86009 9.79126 2.86476 9.83333 2.86476 9.88786C2.84762 10.3023 2.86476 10.5687 2.86476 10.5687V30.9221C2.86476 33.8794 6.31283 35.3019 9.58483 35.3019C10.6755 35.3019 11.7662 35.1259 12.701 34.8143C13.3243 34.5026 13.7714 33.8794 13.7714 33.2562V16.8962C13.7714 13.3126 14.5505 11.6298 16.8876 10.2275C17.5109 9.9159 24.0455 5.40522 24.0455 5.40522C24.3571 5.0936 24.6781 4.46101 24.6781 3.99358V3.84712C24.6781 3.22389 24.3665 2.74711 23.899 2.43549C23.4316 2.12387 22.8084 2.12387 22.341 2.43549C22.1851 2.5913 12.6808 8.9904 10.6552 10.0811C8.62971 11.3275 6.73974 11.6283 6.27231 11.005C6.12741 10.8601 6.00121 10.4161 5.98095 9.9829V9.88474C5.98251 9.46094 6.09158 8.6632 6.95476 8.13188C7.83041 7.6442 10.004 6.25594 12.1167 4.91909C13.0095 4.3535 13.1201 4.29274 13.8197 3.84712C13.9118 4.22776 14.1439 4.55975 14.4697 4.77702C14.7955 4.99429 15.1912 5.08091 15.578 5.01962C15.9648 4.95833 16.3143 4.75363 16.557 4.44628C16.7997 4.13893 16.9177 3.75146 16.8876 3.361V1.02385C16.8894 0.801772 16.8436 0.581882 16.7534 0.378927C16.6632 0.175972 16.5307 -0.00535767 16.3647 -0.152906C16.1987 -0.300455 16.0031 -0.410813 15.791 -0.476581C15.5788 -0.542349 15.3551 -0.562008 15.1348 -0.53424ZM27.5995 4.91909C27.3518 4.9603 27.1176 5.0608 26.9171 5.21201C26.9171 5.21201 19.0736 10.4893 17.715 11.3945L17.6667 11.4444C16.5386 12.2904 15.8702 13.297 15.5726 14.2178C15.4068 14.7375 15.3247 15.2803 15.3295 15.8258V16.3134C15.3273 16.3617 15.3273 16.4101 15.3295 16.4583V35.3019C15.3295 38.2623 18.7386 39.9762 21.8548 39.9762C23.2571 39.9762 24.5223 39.674 25.4571 39.0507C27.3269 37.9601 36.3638 30.9206 36.3638 30.9206C36.8312 30.609 37.1429 30.1696 37.1429 29.7022V9.44692C37.1429 8.66787 36.8406 8.20044 36.2173 7.88882C35.7499 7.5772 34.9818 7.72366 34.5144 8.03528C32.0214 9.905 25.3107 15.1838 23.7526 16.1187C21.5713 17.3652 19.5161 17.6768 18.7371 16.8977C18.4255 16.5861 18.4457 16.2932 18.4457 15.8258C18.454 15.5557 18.4867 15.3282 18.5439 15.1433C18.6311 14.8722 18.8087 14.5388 19.4678 14.0246C19.499 13.9997 19.4834 14.0012 19.5161 13.9763C20.6426 13.2237 24.0876 10.8757 26.3343 9.34876C26.4616 9.69024 26.7046 9.9763 27.021 10.1572C27.3374 10.3381 27.7071 10.4023 28.066 10.3388C28.4248 10.2752 28.7501 10.0879 28.9851 9.80938C29.2201 9.53086 29.3501 9.17876 29.3524 8.81433V6.47719C29.3541 6.2551 29.3084 6.03521 29.2182 5.83226C29.128 5.62931 28.9955 5.44798 28.8295 5.30043C28.6635 5.15288 28.4679 5.04252 28.2557 4.97675C28.0436 4.91098 27.8199 4.89132 27.5995 4.91909ZM34.0267 16.3134V19.4296L26.2362 25.4657V22.3495L34.0267 16.3134Z" fill="url(#paint0_linear_0_266)"/>
</g>
<defs>
<linearGradient id="paint0_linear_0_266" x1="20" y1="-0.546467" x2="20" y2="39.9762" gradientUnits="userSpaceOnUse">
<stop stop-color="#CED5D3"/>
<stop offset="1" stop-color="#5C6B68"/>
</linearGradient>
<clipPath id="clip0_0_266">
<rect width="40" height="40" fill="white"/>
</clipPath>
</defs>
</svg>
