<svg preserveAspectRatio="none" width="100%" height="100%" overflow="visible" style="display: block;" viewBox="0 0 40 40" fill="none" xmlns="http://www.w3.org/2000/svg">
<g id="solar:mask-happly-bold">
<path id="Vector" fill-rule="evenodd" clip-rule="evenodd" d="M35.204 19.5457V10.3008C35.204 6.46662 35.204 4.54869 33.9872 3.50101C32.7704 2.45333 30.9099 2.76763 27.1889 3.39793L25.3732 3.70548C22.5506 4.18369 21.1393 4.42364 19.7142 4.42364C18.2892 4.42364 16.8779 4.18369 14.0553 3.70548L12.2413 3.39793C8.52028 2.76763 6.65978 2.45164 5.44297 3.49932C4.22616 4.547 4.22444 6.46493 4.22444 10.3008V19.5474C4.22444 29.1624 11.5201 33.8263 16.0982 35.8067C17.3391 36.3441 17.9604 36.6128 19.7142 36.6128C21.4697 36.6128 22.0893 36.3441 23.3302 35.8067C27.9083 33.8246 35.204 29.159 35.204 19.5457ZM11.4014 14.8819C11.6148 14.4476 12.4117 13.8561 13.6904 13.8561C14.9692 13.8561 15.7661 14.4476 15.9795 14.8802C16.0515 15.0322 16.154 15.1684 16.2808 15.2807C16.4075 15.3931 16.556 15.4792 16.7174 15.5341C16.8788 15.589 17.0497 15.6114 17.2201 15.6001C17.3905 15.5888 17.5568 15.5439 17.7092 15.4682C18.019 15.3049 18.2523 15.0301 18.3601 14.7014C18.468 14.3728 18.4419 14.0159 18.2875 13.7057C17.4975 12.0987 15.5888 11.2302 13.6904 11.2302C11.7921 11.2302 9.88338 12.1004 9.09512 13.7074C8.94053 14.0174 8.91423 14.3741 9.02172 14.7027C9.12922 15.0313 9.36217 15.3063 9.67168 15.4699C9.82414 15.5459 9.99061 15.5909 10.1612 15.6024C10.3317 15.6139 10.5029 15.5915 10.6645 15.5366C10.8261 15.4817 10.9747 15.3955 11.1016 15.283C11.2285 15.1705 11.3293 15.0341 11.4014 14.8819ZM25.7398 13.8561C24.461 13.8561 23.6641 14.4476 23.4507 14.8802C23.3787 15.0322 23.2762 15.1684 23.1494 15.2807C23.0227 15.3931 22.8742 15.4792 22.7128 15.5341C22.5514 15.589 22.3805 15.6114 22.2101 15.6001C22.0397 15.5888 21.8734 15.5439 21.721 15.4682C21.4112 15.3049 21.1779 15.0301 21.0701 14.7014C20.9622 14.3728 20.9883 14.0159 21.1427 13.7057C21.9327 12.0987 23.8397 11.2285 25.7398 11.2285C27.6398 11.2285 29.5468 12.0987 30.3351 13.7057C30.4897 14.0157 30.516 14.3724 30.4085 14.701C30.301 15.0296 30.068 15.3046 29.7585 15.4682C29.6061 15.5442 29.4396 15.5893 29.269 15.6007C29.0984 15.6122 28.9273 15.5898 28.7657 15.5349C28.6041 15.48 28.4555 15.3938 28.3286 15.2813C28.2017 15.1688 28.0991 15.0324 28.0271 14.8802C27.8154 14.4476 27.0185 13.8561 25.7398 13.8561ZM12.8127 24.0085C12.5625 23.7633 12.4175 23.4334 12.4072 23.0865C12.397 22.7396 12.5224 22.402 12.7576 22.143C12.8751 22.0212 13.0161 21.9236 13.1724 21.8557C13.3286 21.7878 13.4971 21.7511 13.6679 21.7477C13.8387 21.7442 14.0085 21.7741 14.1675 21.8356C14.3265 21.897 14.4715 21.9889 14.594 22.1058L14.7695 22.2393C14.9434 22.3592 15.2308 22.5367 15.6421 22.7209C16.4597 23.0859 17.7883 23.4863 19.716 23.4863C21.6436 23.4863 22.9723 23.0859 23.7898 22.7209C24.2011 22.5367 24.4885 22.3592 24.6606 22.2393C24.7297 22.1905 24.7968 22.1392 24.862 22.0855L24.8637 22.0838C24.985 21.968 25.1288 21.8773 25.2865 21.8174C25.4443 21.7574 25.6128 21.7294 25.7819 21.7349C25.9509 21.7404 26.1171 21.7794 26.2705 21.8495C26.4238 21.9196 26.5612 22.0194 26.6743 22.143C26.9106 22.3989 27.0377 22.7341 27.0294 23.0794C27.0211 23.4248 26.8779 23.7537 26.6296 23.9984L26.6278 24.0017L26.621 24.0085L26.6072 24.0203L26.5728 24.0524L26.4695 24.1403C26.3575 24.233 26.2415 24.3209 26.1218 24.4039C25.715 24.6837 25.2823 24.9253 24.8293 25.1255C23.6882 25.6358 22.0067 26.1123 19.716 26.1123C17.4269 26.1123 15.7437 25.6358 14.6043 25.1255C14.1508 24.9254 13.7175 24.6838 13.3101 24.4039C13.1367 24.2828 12.9712 24.1513 12.8144 24.0102L12.8127 24.0085Z" fill="url(#paint0_linear_0_268)"/>
<path id="Vector 12" d="M18.5001 34.0008C18.5001 34.0008 14.5001 33.4992 12.4984 31.0037" stroke="white" stroke-opacity="0.4" stroke-width="2.18254" stroke-linecap="round"/>
<path id="Vector 13" d="M10.1181 29.0382C10.1181 29.0382 8.77047 28.2526 7.95905 26" stroke="white" stroke-opacity="0.4" stroke-width="2.18254" stroke-linecap="round"/>
</g>
<defs>
<linearGradient id="paint0_linear_0_268" x1="19.7142" y1="2.81684" x2="19.7142" y2="36.6128" gradientUnits="userSpaceOnUse">
<stop stop-color="#F2CFA6"/>
<stop offset="1" stop-color="#C58334"/>
</linearGradient>
</defs>
</svg>
