<svg preserveAspectRatio="none" width="100%" height="100%" overflow="visible" style="display: block;" viewBox="0 0 40 40" fill="none" xmlns="http://www.w3.org/2000/svg">
<g id="fluent:chat-28-filled">
<path id="Vector" d="M2.85734 20.0005C2.85734 10.5334 10.5331 2.85767 20.0002 2.85767C29.4673 2.85767 37.1431 10.5334 37.1431 20.0005C37.1431 29.4677 29.4673 37.1434 20.0002 37.1434C17.1918 37.1474 14.4258 36.4585 11.9473 35.1377L5.13306 37.0762C4.82716 37.1631 4.50362 37.1668 4.19585 37.0868C3.88808 37.0068 3.60726 36.846 3.3824 36.6212C3.15755 36.3963 2.99681 36.1155 2.91681 35.8077C2.83681 35.5 2.84045 35.1764 2.92734 34.8705L4.86449 28.0562C3.54275 25.5771 2.85332 22.81 2.85734 20.0005ZM13.5716 16.7862C13.5716 17.3777 14.0516 17.8577 14.6431 17.8577H25.3573C25.6415 17.8577 25.914 17.7448 26.115 17.5439C26.3159 17.3429 26.4288 17.0704 26.4288 16.7862C26.4288 16.5021 26.3159 16.2296 26.115 16.0286C25.914 15.8277 25.6415 15.7148 25.3573 15.7148H14.6431C14.3589 15.7148 14.0864 15.8277 13.8854 16.0286C13.6845 16.2296 13.5716 16.5021 13.5716 16.7862ZM14.6431 22.1434C14.3589 22.1434 14.0864 22.2563 13.8854 22.4572C13.6845 22.6581 13.5716 22.9307 13.5716 23.2148C13.5716 23.499 13.6845 23.7715 13.8854 23.9724C14.0864 24.1734 14.3589 24.2862 14.6431 24.2862H21.0716C21.3558 24.2862 21.6283 24.1734 21.8292 23.9724C22.0302 23.7715 22.1431 23.499 22.1431 23.2148C22.1431 22.9307 22.0302 22.6581 21.8292 22.4572C21.6283 22.2563 21.3558 22.1434 21.0716 22.1434H14.6431Z" fill="url(#paint0_linear_0_260)"/>
<path id="Vector 13" d="M19.4929 5.29042C14.4205 5.29042 9.85514 7.82665 7.82616 11.8846" stroke="white" stroke-opacity="0.4" stroke-width="2" stroke-linecap="round"/>
<path id="Vector 14" d="M6.61953 14.9281C6.61953 14.9281 5.3071 16.6754 5.702 19.181" stroke="white" stroke-opacity="0.4" stroke-width="2" stroke-linecap="round"/>
</g>
<defs>
<linearGradient id="paint0_linear_0_260" x1="20.0002" y1="2.85767" x2="20.0002" y2="37.1442" gradientUnits="userSpaceOnUse">
<stop stop-color="#ECBFB6"/>
<stop offset="1" stop-color="#D27160"/>
</linearGradient>
</defs>
</svg>
